<?xml version="1.0" encoding="UTF-8" standalone="no"?>
<svg width="27px" height="28px" viewBox="0 0 27 28" version="1.1" xmlns="http://www.w3.org/2000/svg" xmlns:xlink="http://www.w3.org/1999/xlink" xmlns:sketch="http://www.bohemiancoding.com/sketch/ns">
    <!-- Generator: Sketch 3.3.3 (12072) - http://www.bohemiancoding.com/sketch -->
    <title>blogger</title>
    <desc>Created with Sketch.</desc>
    <defs></defs>
    <g id="Page-1" stroke="none" stroke-width="1" fill="none" fill-rule="evenodd" sketch:type="MSPage">
        <g id="Landing" sketch:type="MSArtboardGroup" transform="translate(-434.000000, -4193.000000)" fill="#FFFFFF">
            <g id="Group" sketch:type="MSLayerGroup" transform="translate(0.000000, 1668.000000)">
                <g id="Rectangle-62-+-Group-+-Servicios-+-Rectangle-5-Copy" transform="translate(0.000000, 2331.000000)" sketch:type="MSShapeGroup">
                    <g id="Group" transform="translate(250.000000, 190.000000)">
                        <path d="M184,12.7457324 L184,22.3116953 C184,27.1277676 187.933299,31.027 192.779852,31.027 L202.230432,31.027 C207.08057,31.027 211,27.1277676 211,22.3116953 L211,16.1317012 C211,15.1692461 210.22375,14.3880391 209.254387,14.3880391 L207.772393,14.3880391 C206.813576,14.3880391 206.058578,13.6697969 205.995244,12.7665098 C205.984908,7.92929102 202.054773,4.027 197.204951,4.027 L192.779852,4.027 C187.933299,4.027 184.003428,7.92934375 184,12.7457324 Z M198.216835,11.3906364 C199.174165,11.3906364 199.954545,12.2136215 199.954545,13.2316901 C199.954545,14.2456499 199.174165,15.0724545 198.216835,15.0724545 L193.101347,15.0724545 C192.144071,15.0724545 191.363636,14.2457657 191.363636,13.2316901 C191.363528,12.2136215 192.143962,11.3906364 193.101347,11.3906364 L198.216835,11.3906364 Z M203.222051,19.9815455 C204.12582,19.9815455 204.863636,20.7985716 204.863636,21.8141338 C204.863636,22.8296348 204.12582,23.6633636 203.222051,23.6633636 L192.994519,23.6633636 C192.090804,23.6633636 191.363636,22.8296348 191.363636,21.8141338 C191.363636,20.7986328 192.090912,19.9815455 192.994519,19.9815455 L203.222051,19.9815455 Z" id="blogger"></path>
                    </g>
                </g>
            </g>
        </g>
    </g>
</svg>