<?xml version="1.0" encoding="UTF-8" standalone="no"?>
<svg width="28px" height="34px" viewBox="0 0 28 34" version="1.1" xmlns="http://www.w3.org/2000/svg" xmlns:xlink="http://www.w3.org/1999/xlink" xmlns:sketch="http://www.bohemiancoding.com/sketch/ns">
    <!-- Generator: Sketch 3.3.3 (12072) - http://www.bohemiancoding.com/sketch -->
    <title>github</title>
    <desc>Created with Sketch.</desc>
    <defs></defs>
    <g id="Page-1" stroke="none" stroke-width="1" fill="none" fill-rule="evenodd" sketch:type="MSPage">
        <g id="Landing" sketch:type="MSArtboardGroup" transform="translate(-976.000000, -4189.000000)" fill="#FFFFFF">
            <g id="Group" sketch:type="MSLayerGroup" transform="translate(0.000000, 1668.000000)">
                <g id="Rectangle-62-+-Group-+-Servicios-+-Rectangle-5-Copy" transform="translate(0.000000, 2331.000000)" sketch:type="MSShapeGroup">
                    <g id="Group" transform="translate(250.000000, 190.000000)">
                        <path d="M728.187458,16.9625566 C729.599024,19.4777902 732.321331,21.0426764 736.9128,21.4755173 C736.25743,21.9635335 735.47021,22.8900984 735.361628,23.9612607 C734.537568,24.4844749 732.880723,24.65666 731.59228,24.2580659 C729.787104,23.6987023 729.095863,20.1912642 726.392946,20.6906959 C725.807378,20.799144 725.923716,21.1777609 726.429786,21.4992998 C727.253846,22.0225141 728.029432,22.6770075 728.627603,24.07066 C729.087138,25.140871 730.052742,27.0529813 733.106612,27.0529813 C734.318465,27.0529813 735.167732,26.9102865 735.167732,26.9102865 C735.167732,26.9102865 735.190999,29.6414649 735.190999,30.7031142 C735.190999,31.9274355 733.507008,32.2727569 733.507008,32.8616108 C733.507008,33.094679 734.064461,33.1165588 734.512362,33.1165588 C735.397499,33.1165588 737.239516,32.3916693 737.239516,31.1188317 C737.239516,30.1076012 737.255997,26.7076599 737.255997,26.1130982 C737.255997,24.812673 737.966628,24.4007607 737.966628,24.4007607 C737.966628,24.4007607 738.054851,31.3423869 737.796968,32.2727569 C737.49449,33.3667504 736.948671,33.2116887 736.948671,33.6997049 C736.948671,34.4255458 739.165878,33.8775978 739.900745,32.2841725 C740.468862,31.0436791 740.220675,24.2342834 740.220675,24.2342834 L740.826601,24.2219165 C740.826601,24.2219165 740.860533,27.3393222 740.840174,28.7643675 C740.818845,30.2398317 740.71705,32.1062797 741.609943,32.9862309 C742.19648,33.5646205 744.098605,34.5796562 744.098605,33.65214 C744.098605,33.1127536 743.056411,32.6694485 743.056411,31.2101564 L743.056411,24.4958905 C743.888227,24.4958905 743.763164,26.7038547 743.763164,26.7038547 L743.824241,30.8058544 C743.824241,30.8058544 743.641009,32.3003446 745.471392,32.9262991 C746.117067,33.1479517 747.499549,33.2078835 747.564505,32.8359257 C747.62946,32.4630167 745.899903,31.9084096 745.884392,30.7506791 C745.874697,30.0448155 745.916384,29.6329032 745.916384,26.5649651 C745.916384,23.497027 745.496599,22.363079 744.033649,21.4593453 C748.54853,21.0036732 751.342578,19.907682 752.704701,16.9720695 C752.811061,16.9754966 753.259194,15.6007742 753.201076,15.6012482 C753.506463,14.4929853 753.671275,13.1820957 753.704238,11.6295764 C753.696482,7.42007986 751.643118,5.93129748 751.248538,5.23209298 C751.830228,2.04524252 751.15159,0.594512086 750.836508,0.0969828954 C749.673129,-0.309221626 746.788919,1.14150881 745.21351,2.16415485 C742.644381,1.4268984 737.215279,1.4982458 735.179366,2.35441458 C731.422621,-0.28543916 729.435182,0.118862764 729.435182,0.118862764 C729.435182,0.118862764 728.150617,2.37819704 729.095863,5.68395983 C727.859773,7.22982013 726.938764,8.32381357 726.938764,11.2233718 C726.938764,12.8567516 727.1346,14.3188976 727.576684,15.5955404 C727.52249,15.5954093 728.16959,16.9629777 728.187458,16.9625566 Z" id="github"></path>
                    </g>
                </g>
            </g>
        </g>
    </g>
</svg>