<?xml version="1.0" encoding="UTF-8" standalone="no"?>
<svg width="24px" height="30px" viewBox="0 0 24 30" version="1.1" xmlns="http://www.w3.org/2000/svg" xmlns:xlink="http://www.w3.org/1999/xlink" xmlns:sketch="http://www.bohemiancoding.com/sketch/ns">
    <!-- Generator: Sketch 3.3.3 (12072) - http://www.bohemiancoding.com/sketch -->
    <title>Shape</title>
    <desc>Created with Sketch.</desc>
    <defs></defs>
    <g id="Page-1" stroke="none" stroke-width="1" fill="none" fill-rule="evenodd" sketch:type="MSPage">
        <g id="Landing" sketch:type="MSArtboardGroup" transform="translate(-797.000000, -4191.000000)" fill="#FFFFFF">
            <g id="Group" sketch:type="MSLayerGroup" transform="translate(0.000000, 1668.000000)">
                <g id="Rectangle-62-+-Group-+-Servicios-+-Rectangle-5-Copy" transform="translate(0.000000, 2331.000000)" sketch:type="MSShapeGroup">
                    <g id="Group" transform="translate(250.000000, 190.000000)">
                        <path d="M567.04488,17.9672075 C567.007635,14.1678826 570.088949,12.3457981 570.226649,12.255271 C568.495273,9.67656758 565.798331,9.32330689 564.837197,9.28246716 C562.541956,9.04592488 560.358624,10.6578928 559.193704,10.6578928 C558.031778,10.6578928 556.234258,9.31744753 554.3307,9.35266227 C551.828966,9.39051372 549.522211,10.8332634 548.234041,13.1137841 C545.634732,17.7045325 547.568398,24.5056064 550.101793,28.2288183 C551.339707,30.0511372 552.815832,32.0982211 554.75393,32.0250963 C556.6203,31.9492762 557.326068,30.7958616 559.582567,30.7958616 C561.839066,30.7958616 562.473221,32.0250963 564.448449,31.987362 C566.456779,31.9493934 567.729233,30.1300041 568.95857,28.301943 C570.380179,26.1876523 570.965518,24.1406856 571,24.0355687 C570.955386,24.0148852 567.08368,22.5052216 567.04488,17.9672075 Z M563.333728,6.81766965 C564.36233,5.54741944 565.056642,3.78510035 564.867247,2.027 C563.385538,2.08840607 561.589457,3.03158692 560.526431,4.29896604 C559.572493,5.42325965 558.737603,7.21768802 558.961307,8.94063222 C560.615429,9.07205762 562.303917,8.08504877 563.333728,6.81766965 Z" id="Shape"></path>
                    </g>
                </g>
            </g>
        </g>
    </g>
</svg>