<?xml version="1.0" encoding="UTF-8" standalone="no"?>
<svg width="30px" height="30px" viewBox="0 0 30 30" version="1.1" xmlns="http://www.w3.org/2000/svg" xmlns:xlink="http://www.w3.org/1999/xlink" xmlns:sketch="http://www.bohemiancoding.com/sketch/ns">
    <!-- Generator: Sketch 3.3.3 (12072) - http://www.bohemiancoding.com/sketch -->
    <title>svg</title>
    <desc>Created with Sketch.</desc>
    <defs></defs>
    <g id="Page-1" stroke="none" stroke-width="1" fill="none" fill-rule="evenodd" sketch:type="MSPage">
        <g id="Landing" sketch:type="MSArtboardGroup" transform="translate(-1160.000000, -4191.000000)" fill="#FFFFFF">
            <g id="Group" sketch:type="MSLayerGroup" transform="translate(0.000000, 1668.000000)">
                <g id="Rectangle-62-+-Group-+-Servicios-+-Rectangle-5-Copy" transform="translate(0.000000, 2331.000000)" sketch:type="MSShapeGroup">
                    <g id="Group" transform="translate(250.000000, 190.000000)">
                        <path d="M938.311586,11.0746298 C942.894764,0.512371789 933.400649,2.05942884 932.872041,2.16474827 C930.86062,2.56553141 928.99973,3.2089762 927.283223,4.0246325 C927.0301,4.0101155 926.775441,4.00214538 926.518824,4.00214538 C920.112774,4.00214538 914.750522,8.55194481 913.378126,14.6512208 C916.754535,10.7941101 919.117476,9.23780203 920.532501,8.61499415 C920.306634,8.82050936 920.085519,9.02830175 919.868038,9.2376597 C919.795637,9.30725592 919.725892,9.3778484 919.65447,9.44787159 C919.511067,9.58834494 919.367943,9.72896062 919.228174,9.8708572 C919.145011,9.95525507 919.064084,10.0403646 918.982179,10.1253317 C918.858204,10.2538499 918.734508,10.3822257 918.613468,10.5114555 C918.52751,10.6032542 918.443648,10.6953376 918.359227,10.7872786 C918.246154,10.9105308 918.133779,11.0339253 918.023501,11.1577468 C917.937823,11.2539575 917.853542,11.3501682 917.769401,11.4466636 C917.664853,11.5665 917.561284,11.6863365 917.459113,11.8064576 C917.374412,11.906084 917.290411,12.0057105 917.207388,12.1054794 C917.110528,12.2219 917.014925,12.3383207 916.920302,12.4547414 C916.83658,12.5577836 916.753137,12.6606835 916.671233,12.7635835 C916.582619,12.8748805 916.495962,12.9860352 916.409444,13.0970476 C916.325583,13.2046442 916.241721,13.3120985 916.159816,13.4195527 C916.081825,13.5218834 916.00607,13.623787 915.929756,13.725833 C915.843658,13.8411151 915.756861,13.9563972 915.673,14.07111 C915.613039,14.1532307 915.555454,14.2344974 915.496611,14.3163335 C914.96395,15.056416 914.477273,15.7822661 914.037698,16.4795092 C913.918754,16.6682302 913.807078,16.8491235 913.697639,17.0284511 C913.570169,17.2378091 913.464364,17.4147173 913.361214,17.5897753 C913.07287,18.0795106 912.815694,18.5338074 912.584096,18.961205 C911.36992,21.2018048 910.778835,22.7672216 910.753257,22.8601588 C906.919104,36.8181146 918.885599,30.9237845 920.555424,30.0439403 C922.353417,30.9484065 924.377557,31.4574979 926.518824,31.4574979 C932.380752,31.4574979 937.368143,27.647354 939.224559,22.3265878 L932.141047,22.3265878 C931.092917,24.129685 929.075066,25.3509634 926.756851,25.3509634 C923.360316,25.3509634 920.606999,22.7305021 920.606999,19.4979072 L939.889023,19.4979072 C939.962122,18.9189349 940,18.3288615 940,17.7298216 C940,15.3148755 939.386832,13.0460957 938.311586,11.0746298 Z M937.974602,10.4916726 C936.440913,7.98008876 934.13346,6.00990378 931.390905,4.92696384 C932.638487,4.31340699 935.728089,3.01570081 937.481635,4.22103901 C938.64256,5.01890486 939.573703,6.27192145 937.974602,10.4916726 Z M913.783877,22.2410514 C914.836899,25.3239219 916.938192,27.9070945 919.654191,29.5465195 C918.303459,30.3035385 914.717536,32.0080054 912.810103,30.0159026 C911.864564,29.0284618 911.697399,26.6234783 913.783877,22.2410514 Z M926.669495,10.0866197 C929.968612,10.0866197 932.654001,12.6021886 932.761763,15.7439811 L920.577228,15.7439811 C920.68499,12.6021886 923.370239,10.0866197 926.669495,10.0866197 Z" id="svg"></path>
                    </g>
                </g>
            </g>
        </g>
    </g>
</svg>