<?xml version="1.0" encoding="UTF-8" standalone="no"?>
<svg width="362px" height="59px" viewBox="0 0 362 59" version="1.1" xmlns="http://www.w3.org/2000/svg" xmlns:xlink="http://www.w3.org/1999/xlink" xmlns:sketch="http://www.bohemiancoding.com/sketch/ns">
    <!-- Generator: Sketch 3.3.3 (12072) - http://www.bohemiancoding.com/sketch -->
    <title>comillas</title>
    <desc>Created with Sketch.</desc>
    <defs></defs>
    <g id="Page-1" stroke="none" stroke-width="1" fill="none" fill-rule="evenodd" sketch:type="MSPage">
        <g id="Landing" sketch:type="MSArtboardGroup" transform="translate(-539.000000, -3810.000000)" fill="#E7E8EC">
            <g id="Testimonios" sketch:type="MSLayerGroup" transform="translate(0.000000, 3516.000000)">
                <g id="Group" transform="translate(539.000000, 80.000000)" sketch:type="MSShapeGroup">
                    <g id="comillas" transform="translate(0.000000, 214.000000)">
                        <g id="Path-Copy-2-+-Path-Copy">
                            <path d="M2.97916667,5.12 C4.96528771,2.7733216 7.18054333,1.066672 9.625,0 L10.4166667,1.6 C8.4722125,2.666672 6.81250688,3.9933254 5.4375,5.58 C4.06249312,7.1666746 3.375,8.7733252 3.375,10.4 C3.375,10.7200016 3.47916562,10.9599992 3.6875,11.12 C3.89583438,11.2800008 4.166665,11.36 4.5,11.36 C6.30556458,11.1733324 7.27777708,11.08 7.41666667,11.08 C8.33333792,11.08 9.32638354,11.3999968 10.3958333,12.04 C11.4652831,12.6800032 12,13.7733256 12,15.32 C12,16.6266732 11.55556,17.7333288 10.6666667,18.64 C9.77777333,19.5466712 8.51389708,20 6.875,20 C4.95832375,20 3.33334,19.2866738 2,17.86 C0.66666,16.4333262 0,14.6266776 0,12.44 C0,9.906654 0.993045625,7.4666784 2.97916667,5.12 L2.97916667,5.12 Z" id="Path-Copy-2"></path>
                            <path d="M22.0208333,5.02 C24.0347323,2.7133218 26.2360992,1.0400052 28.625,0 L29.4166667,1.6 C27.4722125,2.666672 25.8125069,3.9799922 24.4375,5.54 C23.0624931,7.1000078 22.375,8.6933252 22.375,10.32 C22.375,10.6133348 22.4583325,10.859999 22.625,11.06 C22.7916675,11.260001 23.0833313,11.36 23.5,11.36 C25.2777867,11.1733324 26.2499992,11.08 26.4166667,11.08 C27.4444496,11.08 28.4652727,11.4333298 29.4791667,12.14 C30.4930606,12.8466702 31,13.8933264 31,15.28 C31,16.3733388 30.6041706,17.4333282 29.8125,18.46 C29.0208294,19.4866718 27.6944538,20 25.8333333,20 C23.8333233,20 22.1944508,19.2600074 20.9166667,17.78 C19.6388825,16.2999926 19,14.626676 19,12.76 C19,9.9066524 20.0069344,7.3266782 22.0208333,5.02 L22.0208333,5.02 Z" id="Path-Copy"></path>
                        </g>
                        <g id="Path-Copy-2-+-Path-Copy-Copy" transform="translate(346.500000, 49.000000) rotate(-180.000000) translate(-346.500000, -49.000000) translate(331.000000, 39.000000)">
                            <path d="M2.97916667,5.12 C4.96528771,2.7733216 7.18054333,1.066672 9.625,0 L10.4166667,1.6 C8.4722125,2.666672 6.81250688,3.9933254 5.4375,5.58 C4.06249312,7.1666746 3.375,8.7733252 3.375,10.4 C3.375,10.7200016 3.47916562,10.9599992 3.6875,11.12 C3.89583438,11.2800008 4.166665,11.36 4.5,11.36 C6.30556458,11.1733324 7.27777708,11.08 7.41666667,11.08 C8.33333792,11.08 9.32638354,11.3999968 10.3958333,12.04 C11.4652831,12.6800032 12,13.7733256 12,15.32 C12,16.6266732 11.55556,17.7333288 10.6666667,18.64 C9.77777333,19.5466712 8.51389708,20 6.875,20 C4.95832375,20 3.33334,19.2866738 2,17.86 C0.66666,16.4333262 0,14.6266776 0,12.44 C0,9.906654 0.993045625,7.4666784 2.97916667,5.12 L2.97916667,5.12 Z" id="Path-Copy-2"></path>
                            <path d="M22.0208333,5.02 C24.0347323,2.7133218 26.2360992,1.0400052 28.625,0 L29.4166667,1.6 C27.4722125,2.666672 25.8125069,3.9799922 24.4375,5.54 C23.0624931,7.1000078 22.375,8.6933252 22.375,10.32 C22.375,10.6133348 22.4583325,10.859999 22.625,11.06 C22.7916675,11.260001 23.0833313,11.36 23.5,11.36 C25.2777867,11.1733324 26.2499992,11.08 26.4166667,11.08 C27.4444496,11.08 28.4652727,11.4333298 29.4791667,12.14 C30.4930606,12.8466702 31,13.8933264 31,15.28 C31,16.3733388 30.6041706,17.4333282 29.8125,18.46 C29.0208294,19.4866718 27.6944538,20 25.8333333,20 C23.8333233,20 22.1944508,19.2600074 20.9166667,17.78 C19.6388825,16.2999926 19,14.626676 19,12.76 C19,9.9066524 20.0069344,7.3266782 22.0208333,5.02 L22.0208333,5.02 Z" id="Path-Copy"></path>
                        </g>
                    </g>
                </g>
            </g>
        </g>
    </g>
</svg>