<?xml version="1.0" encoding="UTF-8" standalone="no"?>
<svg width="44px" height="40px" viewBox="0 0 44 40" version="1.1" xmlns="http://www.w3.org/2000/svg" xmlns:xlink="http://www.w3.org/1999/xlink" xmlns:sketch="http://www.bohemiancoding.com/sketch/ns">
    <!-- Generator: Sketch 3.3.3 (12072) - http://www.bohemiancoding.com/sketch -->
    <title>alojamiento</title>
    <desc>Created with Sketch.</desc>
    <defs></defs>
    <g id="Page-1" stroke="none" stroke-width="1" fill="none" fill-rule="evenodd" sketch:type="MSPage">
        <g id="Landing" sketch:type="MSArtboardGroup" transform="translate(-498.000000, -1408.000000)" fill="#FFFFFF">
            <g id="Rectangle-45-+-Group-Copy-2" sketch:type="MSLayerGroup" transform="translate(490.000000, 1400.000000)">
                <path d="M28.4165498,32.7792982 C28.6959498,33.0570722 29.0622498,33.1959592 29.4279998,33.1959592 C29.7937498,33.1959592 30.1605998,33.0570722 30.4394498,32.7792982 C30.9982498,32.2232034 30.9982498,31.3237188 30.4394498,30.767624 L25.7545499,26.1110823 C25.7539999,26.1105355 25.7539999,26.1105355 25.7534499,26.1099887 L24.7425499,25.1049718 L23.7327499,26.1088951 C23.7316499,26.1099887 23.7305499,26.1110823 23.7294499,26.1121759 L19.0478499,30.767624 C18.4890499,31.3237188 18.4890499,32.2232034 19.0478499,32.7792982 C19.6066499,33.3348461 20.5130499,33.3348461 21.0707499,32.7792982 L23.3119999,30.5505447 L23.3119999,42.5746586 C23.3119999,43.360409 23.9527499,43.9968832 24.7425499,43.9968832 C25.5328999,43.9968832 26.1736499,43.360409 26.1736499,42.5746586 L26.1736499,30.5499979 L28.4165498,32.7792982 Z M37.7857998,40.3256736 L35.5450998,42.5538802 L35.5450998,30.5303132 C35.5450998,29.7445628 34.9043498,29.1075417 34.1139998,29.1075417 C33.3236498,29.1075417 32.6828998,29.7445628 32.6828998,30.5303132 L32.6828998,42.5549738 L30.4399998,40.3256736 C29.8811998,39.7695788 28.9742498,39.7695788 28.4165498,40.3256736 C27.8577498,40.8812215 27.8577498,41.781253 28.4165498,42.336801 L33.1014498,46.9933427 C33.1019998,46.9938895 33.1025498,46.9944363 33.1030998,46.9949831 L34.1139998,48 L35.1226998,46.9971703 C35.1248998,46.9949831 35.1265498,46.9933427 35.1281998,46.9911555 L39.8092498,42.336801 C40.3680498,41.781253 40.3680498,40.8812215 39.8092498,40.3256736 C39.2498998,39.7695788 38.3445998,39.7695788 37.7857998,40.3256736 Z M50.1195497,23.9955162 C50.9632497,20.3051686 50.2779497,16.6935601 48.1846497,13.9595642 C45.0133497,9.81810725 39.3109498,8.55992235 33.9814498,10.7006411 C32.0839498,8.97111533 29.6017998,8 26.9969999,8 C21.5118499,8 17.0089999,12.2606592 16.6619499,17.6285867 C11.75485,18.4356622 8,22.683745 8,27.7875685 C8,33.1904912 12.24985,37.6993972 17.6744999,38.0526294 C17.7129999,38.0548166 17.7503999,38.0559102 17.7888999,38.0559102 C18.6853999,38.0559102 19.4405499,37.3636625 19.4999499,36.4603502 C19.5620999,35.5204024 18.8459999,34.7078589 17.8994499,34.6460706 C14.27385,34.4104001 11.4342,31.3980835 11.4342,27.7875685 C11.4342,23.9922355 14.5395,20.9050073 18.2618999,20.9017265 L20.3276999,20.9066477 L20.1126499,19.0087078 C20.0856999,18.7752245 20.0741499,18.5384605 20.0741499,18.2967753 C20.0741499,14.5014422 23.1794499,11.414214 26.9969999,11.414214 C29.0330998,11.414214 30.9580998,12.3033095 32.2769998,13.854032 L33.1531498,14.883108 L34.3625998,14.2745205 C38.5079498,12.1923093 43.0674497,12.9135374 45.4527997,16.0275587 C47.0554997,18.1223463 47.4641497,21.0225691 46.5736997,23.9856739 L46.2695497,24.9994395 L47.0472497,25.7217612 C48.0262497,26.6299947 48.5663497,27.8575588 48.5663497,29.177532 C48.5663497,31.7863109 46.4301497,33.9089853 43.8049997,33.9089853 C42.9871497,33.9089853 42.1753497,33.6940932 41.4586997,33.2900086 C40.6386498,32.8214017 39.5870498,33.1090181 39.1184498,33.9303104 C38.6487498,34.7488688 38.9374998,35.791068 39.7619498,36.2569409 C40.9950497,36.9535631 42.3920497,37.3226525 43.8049997,37.3226525 C48.3243497,37.3226525 51.9999997,33.6689404 51.9999997,29.177532 C52.0005497,27.2861537 51.3256997,25.4478149 50.1195497,23.9955162 Z" id="alojamiento" sketch:type="MSShapeGroup"></path>
            </g>
        </g>
    </g>
</svg>