<?xml version="1.0" encoding="UTF-8" standalone="no"?>
<svg width="50px" height="40px" viewBox="0 0 50 40" version="1.1" xmlns="http://www.w3.org/2000/svg" xmlns:xlink="http://www.w3.org/1999/xlink" xmlns:sketch="http://www.bohemiancoding.com/sketch/ns">
    <!-- Generator: Sketch 3.3.3 (12072) - http://www.bohemiancoding.com/sketch -->
    <title>app-web</title>
    <desc>Created with Sketch.</desc>
    <defs></defs>
    <g id="Page-1" stroke="none" stroke-width="1" fill="none" fill-rule="evenodd" sketch:type="MSPage">
        <g id="Landing" sketch:type="MSArtboardGroup" transform="translate(-495.000000, -894.000000)" fill="#FFFFFF">
            <g id="app-web" sketch:type="MSLayerGroup" transform="translate(490.000000, 886.000000)">
                <g transform="translate(5.000000, 8.000000)" sketch:type="MSShapeGroup">
                    <g id="Group">
                        <path d="M46.5167054,36 L3.48273908,36 C1.56220486,36 0,34.4514708 0,32.5477491 L0,3.45225093 C0,1.54852921 1.56220486,0 3.48273908,0 L46.5172609,0 C48.4377951,0 50,1.54852921 50,3.45225093 L50,32.5482998 C49.9994445,34.4514708 48.4372396,36 46.5167054,36 L46.5167054,36 Z M3.48273908,0.986278739 C2.11108765,0.986278739 0.994988945,2.09260704 0.994988945,3.45225093 L0.994988945,32.5482998 C0.994988945,33.9079436 2.11108765,35.0142719 3.48273908,35.0142719 L46.5172609,35.0142719 C47.8889123,35.0142719 49.0050111,33.9079436 49.0050111,32.5482998 L49.0050111,3.45225093 C49.0050111,2.09260704 47.8889123,0.986278739 46.5172609,0.986278739 L3.48273908,0.986278739 L3.48273908,0.986278739 Z" id="Shape"></path>
                        <path d="M49.5016722,30 L0.497772247,30 C0.222775302,30 0,29.7762277 0,29.5 C0,29.2237723 0.222775302,29 0.497772247,29 L49.5022278,29 C49.7772247,29 50,29.2237723 50,29.5 C49.9994445,29.7762277 49.7766691,30 49.5016722,30 L49.5016722,30 Z" id="Shape"></path>
                        <path d="M34.4930769,40 L16.5069231,40 C16.2268707,40 16,39.7762277 16,39.5 C16,39.2237723 16.2268707,39 16.5069231,39 L34.4930769,39 C34.7731293,39 35,39.2237723 35,39.5 C34.9994342,39.7762277 34.7725635,40 34.4930769,40 L34.4930769,40 Z" id="Shape"></path>
                    </g>
                    <g id="Shape-+-Shape" transform="translate(17.000000, 6.000000)">
                        <path d="M16.9489345,11.461975 C16.8460989,11.1146425 16.6198607,10.8081725 16.2907869,10.6242906 L15.4475354,10.1339387 C15.1595958,9.97048808 14.9950589,9.64358683 15.0361931,9.29625426 C15.0567602,9.07150965 15.0773274,8.84676504 15.0773274,8.62202043 C15.0773274,8.39727582 15.0567602,8.17253121 15.0361931,7.96821793 C14.9950589,7.62088536 15.1595958,7.29398411 15.4475354,7.13053348 L16.2907869,6.64018161 C16.9489345,6.25198638 17.1957398,5.41430193 16.8049647,4.7400681 L16.0234145,3.41203178 C15.7766091,2.98297389 15.3035656,2.71736663 14.8099549,2.71736663 C14.5631496,2.71736663 14.3163442,2.77866061 14.1106731,2.90124858 L13.2674216,3.39160045 C12.979482,3.55505108 12.609274,3.53461975 12.3213345,3.33030647 C12.239066,3.26901249 12.1567976,3.2077185 12.0745291,3.14642452 C11.8482909,2.96254257 11.6220527,2.79909194 11.2929789,2.65607264 C11.1695762,2.59477866 10.9639051,2.45175936 10.9639051,1.90011351 L10.9639051,0.919409762 C10.9639051,0 9.81214689,0 9.25683489,0 L7.71430155,0 C7.17955666,0 6.43914065,0 6.43914065,0.919409762 L6.43914065,1.87968218 C6.43914065,2.1861521 6.21290243,2.51305335 5.86326154,2.65607264 C5.41078509,2.86038593 4.99944287,3.08513053 4.67036909,3.33030647 C4.40299664,3.53461975 4.01222153,3.55505108 3.72428197,3.39160045 L2.88103041,2.90124858 C2.6753593,2.77866061 2.42855397,2.71736663 2.18174863,2.71736663 C1.68813796,2.71736663 1.2150944,2.98297389 0.96828907,3.41203178 L0.186738844,4.7400681 C0.0016348433,5.06696935 -0.0394993791,5.43473326 0.0427690657,5.80249716 C0.145604622,6.17026107 0.371842845,6.45629966 0.700916624,6.64018161 L1.54416818,7.13053348 C1.83210774,7.29398411 1.99664463,7.62088536 1.95551041,7.96821793 C1.9349433,8.19296254 1.91437619,8.41770715 1.91437619,8.64245176 C1.91437619,8.86719637 1.9349433,9.09194098 1.95551041,9.31668558 C1.99664463,9.66401816 1.83210774,9.99091941 1.54416818,10.15437 L0.700916624,10.6242906 C0.0427690657,11.0124858 -0.204036269,11.8501703 0.186738844,12.5244041 L0.947721959,13.8524404 C1.19452729,14.2814983 1.66757085,14.5471056 2.16118152,14.5471056 C2.40798685,14.5471056 2.65479219,14.4858116 2.8604633,14.3632236 L3.70371486,13.8728717 C3.99165442,13.7094211 4.36186242,13.7298524 4.64980198,13.9341657 C4.95830865,14.1589103 5.36965087,14.3836549 5.88382865,14.6083995 C6.21290243,14.7514188 6.45970776,15.0783201 6.45970776,15.38479 L6.45970776,16.3450624 C6.45970776,17.1418842 6.97388554,18 7.73486866,18 L9.277402,18 C10.0589522,18 10.9844722,17.1010216 10.9844722,16.3450624 L10.9844722,15.38479 C10.9844722,14.8331442 11.1901433,14.6696935 11.3546802,14.6083995 C11.7660225,14.4245176 12.0745291,14.199773 12.4447371,13.9341657 C12.7121096,13.7298524 13.0617505,13.7094211 13.34969,13.8728717 L14.1723745,14.3632236 C14.3780456,14.4858116 14.6248509,14.5471056 14.8716562,14.5471056 L14.8716562,14.5471056 C15.3652669,14.5471056 15.8177434,14.2814983 16.0851158,13.8524404 L16.8460989,12.5244041 C16.9900687,12.1975028 17.05177,11.8093076 16.9489345,11.461975 L16.9489345,11.461975 Z M14.8918694,13.1251315 C14.7605804,13.3487125 14.5355136,13.4791347 14.2729357,13.4791347 C14.1416467,13.4791347 14.0291133,13.4418712 13.9165799,13.3859759 L13.1663572,12.9388141 C12.7162236,12.6779697 12.1723122,12.7152332 11.7221786,13.0319728 C11.4220895,13.2555537 11.1595116,13.4418712 10.840667,13.5722934 C10.4092889,13.7772426 10.1842221,14.1871409 10.1842221,14.7833567 L10.1842221,15.6590486 C10.1842221,16.0316835 9.60279958,16.6092675 9.19017711,16.6092675 L7.78350961,16.6092675 C7.44590941,16.6092675 7.18333148,16.1062105 7.18333148,15.6590486 L7.18333148,14.7833567 C7.18333148,14.2802996 6.84573128,13.7958743 6.33933098,13.5722934 C5.90795294,13.3859759 5.57035274,13.1996585 5.32653038,13.0133411 C5.08270801,12.8456554 4.82013008,12.7524967 4.52004101,12.7524967 C4.29497421,12.7524967 4.05115184,12.8083919 3.84484061,12.9388141 L3.07586238,13.3859759 C2.96332898,13.4418712 2.85079558,13.4791347 2.71950661,13.4791347 C2.45692868,13.4791347 2.23186187,13.3487125 2.10057291,13.1251315 L1.40661694,11.9140682 C1.21906127,11.5786969 1.33159467,11.1501668 1.66919487,10.9452176 L2.43817311,10.4980557 C2.88830671,10.2372113 3.15088464,9.71552253 3.09461794,9.19383372 C3.07586238,9.00751629 3.05710681,8.82119885 3.05710681,8.63488142 C3.05710681,8.44856399 3.07586238,8.26224656 3.09461794,8.07592912 C3.15088464,7.55424031 2.88830671,7.0325515 2.43817311,6.7717071 L1.66919487,6.32454526 C1.50039477,6.23138654 1.38786137,6.0823326 1.33159467,5.89601517 C1.27532797,5.70969773 1.31283911,5.5233803 1.40661694,5.35569461 L2.11932847,4.1446313 C2.25061744,3.92105038 2.47568424,3.79062818 2.73826218,3.79062818 C2.86955114,3.79062818 2.98208454,3.82789167 3.09461794,3.88378689 L3.86359618,4.33094873 C4.31372978,4.59179314 4.91390791,4.55452965 5.34528594,4.25642176 C5.62661944,4.05147258 5.94546408,3.86515515 6.33933098,3.69746946 C6.84573128,3.47388854 7.18333148,2.98946322 7.18333148,2.48640615 L7.18333148,1.62934596 C7.18333148,1.3871333 7.18333148,1.34986981 7.78350961,1.34986981 L9.19017711,1.34986981 C9.90288865,1.34986981 10.1842221,1.42439679 10.1842221,1.62934596 L10.1842221,2.50503789 C10.1842221,3.11988542 10.4092889,3.52978377 10.840667,3.71610121 C11.0844893,3.82789167 11.2345339,3.93968212 11.4408451,4.08873607 C11.5158674,4.1446313 11.5908896,4.20052653 11.6846675,4.2750535 C12.1160455,4.57316139 12.6974681,4.61042488 13.1476017,4.34958048 L13.9165799,3.90241864 C14.0291133,3.84652341 14.1416467,3.80925992 14.2729357,3.80925992 C14.5355136,3.80925992 14.7605804,3.93968212 14.8918694,4.16326304 L15.6045809,5.37432635 C15.7921366,5.70969773 15.6796032,6.13822783 15.342003,6.343177 L14.5730248,6.79033884 C14.1228911,7.05118325 13.8603132,7.57287206 13.9165799,8.09456087 C13.9353355,8.2808783 13.954091,8.46719573 13.954091,8.65351317 C13.954091,8.8398306 13.9353355,9.02614803 13.9165799,9.21246546 C13.8603132,9.73415427 14.1228911,10.2558431 14.5730248,10.5166875 L15.342003,10.9638493 C15.5108031,11.057008 15.6233365,11.206062 15.6796032,11.3923794 C15.7171143,11.5600651 15.6796032,11.7650143 15.5858254,11.9140682 L14.8918694,13.1251315 Z" id="Shape"></path>
                        <path d="M8.5,6 C7.12,6 6,7.11553785 6,8.49003984 C6,9.86454183 7.12,11 8.5,11 C9.88,11 11,9.88446215 11,8.50996016 C11,7.13545817 9.88,6 8.5,6 L8.5,6 Z M8.5,10.2031873 C7.55157895,10.2031873 6.8,9.4367792 6.8,8.50996016 C6.8,7.58314112 7.56947368,6.81673307 8.5,6.81673307 C9.44842105,6.81673307 10.2,7.58314112 10.2,8.50996016 C10.2,9.4367792 9.43052632,10.2031873 8.5,10.2031873 L8.5,10.2031873 Z" id="Shape"></path>
                    </g>
                </g>
            </g>
        </g>
    </g>
</svg>