<?xml version="1.0" encoding="UTF-8" standalone="no"?>
<svg width="56px" height="56px" viewBox="0 0 56 56" version="1.1" xmlns="http://www.w3.org/2000/svg" xmlns:xlink="http://www.w3.org/1999/xlink" xmlns:sketch="http://www.bohemiancoding.com/sketch/ns">
    <!-- Generator: Sketch 3.3.3 (12072) - http://www.bohemiancoding.com/sketch -->
    <title>consultoria</title>
    <desc>Created with Sketch.</desc>
    <defs></defs>
    <g id="Page-1" stroke="none" stroke-width="1" fill="none" fill-rule="evenodd" sketch:type="MSPage">
        <g id="Landing" sketch:type="MSArtboardGroup" transform="translate(-852.000000, -2350.000000)" fill="#8ACC3C">
            <g id="Group" sketch:type="MSLayerGroup" transform="translate(0.000000, 1668.000000)">
                <g id="Nosotros-Copy" sketch:type="MSShapeGroup">
                    <path d="M898.80597,719.61194 C895.985075,719.61194 893.477612,720.865672 891.701493,722.955224 L870.074627,712.298507 C870.283582,711.567164 870.38806,710.835821 870.38806,710.104478 C870.38806,709.373134 870.283582,708.537313 870.074627,707.910448 L891.80597,697.149254 C893.477612,699.134328 895.985075,700.492537 898.910448,700.492537 C903.820896,700.38806 908,696.208955 908,691.19403 C908,686.179104 903.925373,682 898.80597,682 C893.791045,682 889.61194,686.074627 889.61194,691.19403 C889.61194,691.925373 889.716418,692.552239 889.820896,693.283582 L868.089552,704.044776 C866.41791,702.059701 863.910448,700.80597 861.19403,700.80597 C856.179104,700.80597 852,704.880597 852,710 C852,715.119403 856.074627,719.19403 861.19403,719.19403 C864.014925,719.19403 866.41791,717.940299 868.089552,715.955224 L889.820896,726.716418 C889.716418,727.343284 889.61194,728.074627 889.61194,728.80597 C889.61194,733.820896 893.686567,738 898.80597,738 C903.820896,738 908,733.820896 908,728.80597 C908,723.791045 903.820896,719.61194 898.80597,719.61194 L898.80597,719.61194 Z M898.80597,685.970149 C901.731343,685.970149 904.029851,688.373134 904.029851,691.19403 C904.029851,694.119403 901.626866,696.41791 898.80597,696.41791 C895.880597,696.41791 893.58209,694.014925 893.58209,691.19403 C893.58209,688.268657 895.880597,685.970149 898.80597,685.970149 L898.80597,685.970149 Z M861.19403,715.223881 C858.268657,715.223881 855.970149,712.820896 855.970149,710 C855.970149,707.074627 858.373134,704.776119 861.19403,704.776119 C864.119403,704.776119 866.41791,707.179104 866.41791,710 C866.41791,712.925373 864.119403,715.223881 861.19403,715.223881 L861.19403,715.223881 Z M898.80597,734.029851 C895.880597,734.029851 893.58209,731.626866 893.58209,728.80597 C893.58209,725.880597 895.985075,723.58209 898.80597,723.58209 C901.731343,723.58209 904.029851,725.985075 904.029851,728.80597 C904.029851,731.731343 901.731343,734.029851 898.80597,734.029851 L898.80597,734.029851 Z" id="consultoria"></path>
                </g>
            </g>
        </g>
    </g>
</svg>