<?xml version="1.0" encoding="UTF-8" standalone="no"?>
<svg width="29px" height="56px" viewBox="0 0 29 56" version="1.1" xmlns="http://www.w3.org/2000/svg" xmlns:xlink="http://www.w3.org/1999/xlink" xmlns:sketch="http://www.bohemiancoding.com/sketch/ns">
    <!-- Generator: Sketch 3.3.3 (12072) - http://www.bohemiancoding.com/sketch -->
    <title>copywriting</title>
    <desc>Created with Sketch.</desc>
    <defs></defs>
    <g id="Page-1" stroke="none" stroke-width="1" fill="none" fill-rule="evenodd" sketch:type="MSPage">
        <g id="Landing" sketch:type="MSArtboardGroup" transform="translate(-546.000000, -2350.000000)" fill="#8ACC3C">
            <g id="Group" sketch:type="MSLayerGroup" transform="translate(0.000000, 1668.000000)">
                <g id="Nosotros-Copy" sketch:type="MSShapeGroup">
                    <path d="M574.477982,707.350738 C571.594123,702.993195 564.057207,691.250382 562.153212,686.809888 C562.739057,686.306994 563.118819,685.5708 563.118819,684.738694 C563.118819,683.226126 561.892693,682 560.380125,682 C558.867557,682 557.641431,683.226126 557.641431,684.738694 C557.641431,685.487849 557.943426,686.164422 558.430766,686.659538 C556.902645,689.636717 550.422064,702.091098 546.366516,707.23668 C546.308191,707.310559 546.256346,707.389622 546.210982,707.472573 C545.908987,708.02083 545.933613,708.696107 546.269307,709.224922 C546.449467,709.507476 550.502423,716.06064 550.766831,729.418414 L549.995641,729.418414 C549.04818,729.418414 548.279583,730.187011 548.279583,731.134472 L548.279583,736.283942 C548.279583,737.231403 549.04818,738 549.995641,738 L569.961017,738 C570.908478,738 571.677075,737.231403 571.677075,736.283942 L571.677075,731.134472 C571.677075,730.187011 570.908478,729.418414 569.961017,729.418414 L569.277963,729.418414 C569.992123,721.420081 571.64856,712.037495 574.240793,709.534694 C574.834414,708.959219 574.934215,708.041568 574.477982,707.350738 L574.477982,707.350738 Z M568.242366,734.566588 L551.710403,734.566588 L551.710403,732.85053 L552.497146,732.85053 L567.412852,732.85053 L568.242366,732.85053 L568.242366,734.566588 L568.242366,734.566588 Z M565.828998,729.417118 L554.201539,729.417118 C553.985087,717.862241 551.080491,710.982456 549.761044,708.43818 C552.876908,704.186918 556.878019,696.957182 559.401557,692.213396 L559.401557,702.452715 C558.538344,702.831181 557.934354,703.690506 557.934354,704.692404 C557.934354,706.042957 559.029572,707.138175 560.380125,707.138175 C561.730678,707.138175 562.825897,706.042957 562.825897,704.692404 C562.825897,703.690506 562.221906,702.829885 561.358693,702.452715 L561.358693,692.737027 C564.461595,698.241633 569.145759,705.476554 570.91755,708.184141 C567.682444,712.838495 566.340964,723.49257 565.828998,729.417118 L565.828998,729.417118 Z" id="copywriting"></path>
                </g>
            </g>
        </g>
    </g>
</svg>