<?xml version="1.0" encoding="UTF-8" standalone="no"?>
<svg width="84px" height="56px" viewBox="0 0 84 56" version="1.1" xmlns="http://www.w3.org/2000/svg" xmlns:xlink="http://www.w3.org/1999/xlink" xmlns:sketch="http://www.bohemiancoding.com/sketch/ns">
    <!-- Generator: Sketch 3.3.3 (12072) - http://www.bohemiancoding.com/sketch -->
    <title>diseno</title>
    <desc>Created with Sketch.</desc>
    <defs></defs>
    <g id="Page-1" stroke="none" stroke-width="1" fill="none" fill-rule="evenodd" sketch:type="MSPage">
        <g id="Landing" sketch:type="MSArtboardGroup" transform="translate(-678.000000, -2091.000000)" fill="#8ACC3C">
            <g id="Group" sketch:type="MSLayerGroup" transform="translate(0.000000, 1668.000000)">
                <g id="Nosotros-Copy" sketch:type="MSShapeGroup">
                    <g id="diseno" transform="translate(678.000000, 423.000000)">
                        <path d="M49.916,20.932 L33.916,20.932 C32.816,20.932 31.916,20.032 31.916,18.932 L31.916,2.932 C31.916,1.828 32.816,0.932 33.916,0.932 L49.916,0.932 C51.02,0.932 51.916,1.828 51.916,2.932 L51.916,18.932 C51.916,20.036 51.02,20.932 49.916,20.932 L49.916,20.932 Z M35.916,16.932 L47.916,16.932 L47.916,4.932 L35.916,4.932 L35.916,16.932 L35.916,16.932 Z" id="Shape"></path>
                        <path d="M7.916,8.932 L31.916,8.932 L31.916,12.932 L7.916,12.932 L7.916,8.932 L7.916,8.932 Z" id="Shape"></path>
                        <path d="M51.916,8.932 L75.916,8.932 L75.916,12.932 L51.916,12.932 L51.916,8.932 L51.916,8.932 Z" id="Shape"></path>
                        <path d="M78,16.932 C74.688,16.932 72,14.24 72,10.932 C72,7.624 74.688,4.932 78,4.932 C81.304,4.932 84,7.624 84,10.932 C84,14.24 81.312,16.932 78,16.932 L78,16.932 Z M78,8.932 C76.9,8.932 76,9.832 76,10.932 C76,12.028 76.9,12.932 78,12.932 C79.092,12.932 80,12.028 80,10.932 C80,9.832 79.1,8.932 78,8.932 L78,8.932 Z" id="Shape"></path>
                        <path d="M6,16.932 C2.692,16.932 0,14.24 0,10.932 C0,7.624 2.692,4.932 6,4.932 C9.308,4.932 12,7.624 12,10.932 C12,14.24 9.308,16.932 6,16.932 L6,16.932 Z M6,8.932 C4.896,8.932 4,9.832 4,10.932 C4,12.028 4.896,12.932 6,12.932 C7.1,12.932 8,12.028 8,10.932 C8,9.832 7.1,8.932 6,8.932 L6,8.932 Z" id="Shape"></path>
                        <path d="M81.252,47.684 C80.152,47.684 79.252,46.784 79.252,45.684 C79.252,29.448 67.668,15.644 51.72,12.852 C50.636,12.664 49.9,11.628 50.096,10.536 C50.284,9.452 51.304,8.716 52.408,8.916 C70.284,12.048 83.252,27.508 83.252,45.684 C83.252,46.788 82.36,47.684 81.252,47.684 L81.252,47.684 Z" id="Shape"></path>
                        <path d="M2.576,47.684 C1.476,47.684 0.576,46.784 0.576,45.684 C0.576,27.508 13.548,12.036 31.424,8.916 C32.528,8.72 33.548,9.448 33.74,10.532 C33.928,11.62 33.204,12.656 32.116,12.848 C16.164,15.644 4.576,29.452 4.576,45.68 C4.576,46.788 3.68,47.684 2.576,47.684 L2.576,47.684 Z" id="Shape"></path>
                        <path d="M51.916,55.06 C51.664,55.06 51.4,55.004 51.164,54.904 L41.92,51.092 L32.68,54.904 C31.932,55.208 31.076,55.044 30.504,54.476 C29.928,53.896 29.76,53.044 30.072,52.296 L40.072,28.172 C40.692,26.68 43.152,26.68 43.768,28.172 L53.576,51.832 C53.84,52.168 54,52.592 54,53.072 C54,54.184 53.096,55.064 51.956,55.072 C51.936,55.06 51.92,55.06 51.916,55.06 L51.916,55.06 Z M41.916,46.932 C42.176,46.932 42.432,46.988 42.676,47.08 L48.22,49.364 L41.912,34.148 L35.6,49.372 L41.148,47.092 C41.4,46.988 41.656,46.932 41.916,46.932 L41.916,46.932 Z" id="Shape"></path>
                    </g>
                </g>
            </g>
        </g>
    </g>
</svg>