<?xml version="1.0" encoding="UTF-8" standalone="no"?>
<svg width="35px" height="35px" viewBox="0 0 35 35" version="1.1" xmlns="http://www.w3.org/2000/svg" xmlns:xlink="http://www.w3.org/1999/xlink" xmlns:sketch="http://www.bohemiancoding.com/sketch/ns">
    <!-- Generator: Sketch 3.3.3 (12072) - http://www.bohemiancoding.com/sketch -->
    <title>dribbble</title>
    <desc>Created with Sketch.</desc>
    <defs></defs>
    <g id="Page-1" stroke="none" stroke-width="1" fill="none" fill-rule="evenodd" sketch:type="MSPage">
        <g id="Landing" sketch:type="MSArtboardGroup" transform="translate(-676.000000, -5141.000000)" fill="#D2D6D9">
            <g id="Contacto-+-Footer" sketch:type="MSLayerGroup" transform="translate(0.000000, 4304.000000)">
                <g id="Footer" transform="translate(0.000000, 672.000000)" sketch:type="MSShapeGroup">
                    <path d="M693.484451,165 C683.82757,165 676,172.829756 676,182.484451 C676,192.140239 683.82757,199.969995 693.484451,199.969995 C703.141332,199.969995 710.968902,192.140239 710.968902,182.484451 C710.968902,172.829756 703.141332,165 693.484451,165 L693.484451,165 Z M704.957529,173.463567 C706.837108,175.849102 707.987803,178.831294 708.078504,182.074659 C704.156523,181.387302 700.773282,181.366539 697.849007,181.829877 C697.478555,180.979696 697.097176,180.154648 696.705961,179.353642 C699.842235,178.065256 702.65286,176.184585 704.957529,173.463567 L704.957529,173.463567 Z M702.945725,171.374175 C700.888023,173.872266 698.30251,175.593392 695.378236,176.762665 C693.506307,173.294187 691.581924,170.404881 690.043293,168.293633 C691.146999,168.02481 692.298787,167.879471 693.484451,167.879471 C697.092805,167.879471 700.39518,169.198454 702.945725,171.374175 L702.945725,171.374175 Z M687.20644,169.301175 C688.693712,171.28566 690.672733,174.162945 692.608043,177.68934 C688.506846,178.815995 683.917178,179.118694 679.272871,179.131808 C680.297897,174.789107 683.263697,171.186217 687.20644,169.301175 L687.20644,169.301175 Z M678.880563,182.484451 C678.880563,182.327091 678.88712,182.170824 678.892584,182.013464 L678.971264,182.013464 C684.173981,182.013464 689.341729,181.672517 693.974016,180.307637 C694.320426,181.010293 694.659188,181.731527 694.991392,182.474616 C688.896968,184.260216 685.097378,188.270712 682.493288,192.087786 C680.246536,189.517572 678.880563,186.158371 678.880563,182.484451 L678.880563,182.484451 Z M684.62202,194.081013 C687.087328,190.36666 690.523022,186.693833 696.112583,185.15083 C697.419545,188.49801 698.483911,192.148982 699.047785,195.984633 C697.332123,196.698217 695.453637,197.089432 693.484451,197.089432 C690.153663,197.089432 687.080771,195.967149 684.62202,194.081013 L684.62202,194.081013 Z M701.734927,194.529052 C701.137177,191.024513 700.158048,187.681704 698.977847,184.582585 C701.532763,184.259123 704.471243,184.337803 707.875247,184.962872 C707.195539,188.919822 704.920375,192.339125 701.734927,194.529052 L701.734927,194.529052 Z" id="dribbble"></path>
                </g>
            </g>
        </g>
    </g>
</svg>