<?xml version="1.0" encoding="UTF-8" standalone="no"?>
<svg width="35px" height="35px" viewBox="0 0 35 35" version="1.1" xmlns="http://www.w3.org/2000/svg" xmlns:xlink="http://www.w3.org/1999/xlink" xmlns:sketch="http://www.bohemiancoding.com/sketch/ns">
    <!-- Generator: Sketch 3.3.3 (12072) - http://www.bohemiancoding.com/sketch -->
    <title>facebook</title>
    <desc>Created with Sketch.</desc>
    <defs></defs>
    <g id="Page-1" stroke="none" stroke-width="1" fill="none" fill-rule="evenodd" sketch:type="MSPage">
        <g id="Landing" sketch:type="MSArtboardGroup" transform="translate(-570.000000, -5141.000000)">
            <g id="Contacto-+-Footer" sketch:type="MSLayerGroup" transform="translate(0.000000, 4304.000000)">
                <g id="Footer" transform="translate(0.000000, 672.000000)" sketch:type="MSShapeGroup">
                    <g id="facebook" transform="translate(570.000000, 165.000000)">
                        <path d="M17.4844511,0 C27.1402393,0 34.9689023,7.828663 34.9689023,17.4844511 C34.9689023,27.1413321 27.1402393,34.9699951 17.4844511,34.9699951 C7.82757022,34.9699951 0,27.1413321 0,17.4844511 C0,7.828663 7.82757022,0 17.4844511,0" id="Fill-199" fill="#D2D6D9"></path>
                        <path d="M19.6131831,12.0369518 L21.8664917,12.0369518 L21.8664917,8.70834945 L19.2186901,8.70834945 L19.2186901,8.72037001 C16.0092006,8.83401894 15.3502553,10.6381957 15.2934309,12.5330731 L15.2868742,12.5330731 L15.2868742,14.1951888 L13.1024106,14.1951888 L13.1024106,17.4549461 L15.2868742,17.4549461 L15.2868742,26.1928006 L18.5805077,26.1928006 L18.5805077,17.4549461 L21.278577,17.4549461 L21.7987395,14.1951888 L18.5805077,14.1951888 L18.5805077,13.1909256 C18.5805077,12.5516504 19.0055984,12.0369518 19.6131831,12.0369518" id="Fill-198" fill="#FFFFFF"></path>
                    </g>
                </g>
            </g>
        </g>
    </g>
</svg>