<?xml version="1.0" encoding="UTF-8" standalone="no"?>
<svg width="35px" height="35px" viewBox="0 0 35 35" version="1.1" xmlns="http://www.w3.org/2000/svg" xmlns:xlink="http://www.w3.org/1999/xlink" xmlns:sketch="http://www.bohemiancoding.com/sketch/ns">
    <!-- Generator: Sketch 3.3.3 (12072) - http://www.bohemiancoding.com/sketch -->
    <title>github</title>
    <desc>Created with Sketch.</desc>
    <defs></defs>
    <g id="Page-1" stroke="none" stroke-width="1" fill="none" fill-rule="evenodd" sketch:type="MSPage">
        <g id="Landing" sketch:type="MSArtboardGroup" transform="translate(-728.000000, -5141.000000)" fill="#D2D6D9">
            <g id="Contacto-+-Footer" sketch:type="MSLayerGroup" transform="translate(0.000000, 4304.000000)">
                <g id="Footer" transform="translate(0.000000, 672.000000)" sketch:type="MSShapeGroup">
                    <path d="M745.484451,165 C735.82757,165 728,172.828663 728,182.484451 C728,192.141332 735.82757,199.968902 745.484451,199.968902 C755.140239,199.968902 762.968902,192.141332 762.968902,182.484451 C762.968902,172.828663 755.140239,165 745.484451,165 L745.484451,165 Z M750.382283,195.805417 C750.28284,194.437259 750.169191,192.74236 750.162635,192.056095 C750.118923,191.529376 750.063192,190.18963 748.791198,189.333985 C753.840926,188.91108 756.243945,186.119031 756.415511,182.430905 C756.559758,180.331678 755.724876,178.48379 754.241976,176.994333 C754.317377,175.39997 754.193893,173.510557 754.091172,172.678952 C752.952497,172.352212 750.297046,173.754246 749.55505,174.354181 C747.990192,173.746597 744.160004,173.533505 741.831294,174.354181 C740.181199,173.193651 738.302713,172.476788 737.27878,172.676767 C736.334619,174.771623 736.941111,176.751737 737.126883,176.987777 C735.908436,178.100225 734.210258,179.469476 734.671411,182.336926 C735.412315,186.543029 738.370465,188.811637 743.136071,189.366768 C742.119787,189.575489 741.948221,190.332784 741.862984,190.66171 C738.662237,191.981786 737.748674,189.845405 737.343254,189.290274 C736.000229,187.627065 734.795988,188.110073 734.720586,188.1363 C734.648463,188.162527 734.593824,188.267433 734.601473,188.317701 C734.669225,188.676132 735.400294,189.040028 735.436356,189.070625 C736.426413,189.808251 736.793586,191.143626 737.019791,191.523912 C738.441496,193.860272 741.74715,192.892071 741.777748,192.910648 C741.781026,193.114997 741.755892,194.83503 741.736222,196.174776 C735.711736,194.52796 731.278335,189.031285 731.278335,182.484451 C731.278335,174.638304 737.638304,168.278335 745.484451,168.278335 C753.330599,168.278335 759.690568,174.638304 759.690568,182.484451 C759.690568,188.607287 755.811205,193.808912 750.382283,195.805417 L750.382283,195.805417 Z" id="github"></path>
                </g>
            </g>
        </g>
    </g>
</svg>