<?xml version="1.0" encoding="UTF-8" standalone="no"?>
<svg width="35px" height="35px" viewBox="0 0 35 35" version="1.1" xmlns="http://www.w3.org/2000/svg" xmlns:xlink="http://www.w3.org/1999/xlink" xmlns:sketch="http://www.bohemiancoding.com/sketch/ns">
    <!-- Generator: Sketch 3.3.3 (12072) - http://www.bohemiancoding.com/sketch -->
    <title>google+</title>
    <desc>Created with Sketch.</desc>
    <defs></defs>
    <g id="Page-1" stroke="none" stroke-width="1" fill="none" fill-rule="evenodd" sketch:type="MSPage">
        <g id="Landing" sketch:type="MSArtboardGroup" transform="translate(-835.000000, -5141.000000)">
            <g id="Contacto-+-Footer" sketch:type="MSLayerGroup" transform="translate(0.000000, 4304.000000)">
                <g id="Footer" transform="translate(0.000000, 672.000000)" sketch:type="MSShapeGroup">
                    <g id="google+" transform="translate(835.000000, 165.000000)">
                        <path d="M17.4844511,0 C27.1413321,0 34.9689023,7.828663 34.9689023,17.4844511 C34.9689023,27.1413321 27.1413321,34.9699951 17.4844511,34.9699951 C7.828663,34.9699951 0,27.1413321 0,17.4844511 C0,7.828663 7.828663,0 17.4844511,0" id="Fill-209" fill="#D2D6D9"></path>
                        <path d="M25.1502902,8.74222557 L25.1502902,10.8949986 L27.2910427,10.8949986 L27.2910427,12.0129107 L25.1502902,12.0129107 L25.1502902,14.1678693 L24.0389348,14.1678693 L24.0389348,12.0129107 L21.8621206,12.0129107 L21.8621206,10.8949986 L24.0389348,10.8949986 L24.0389348,8.74222557 L25.1502902,8.74222557" id="Fill-208" fill="#FFFFFF"></path>
                        <path d="M20.2382522,18.8209189 C18.4537454,17.5500178 17.7871507,16.9500826 18.9301967,15.9425411 C20.0721499,14.9349996 20.9758775,14.1197871 20.9758775,12.247858 C20.9758775,10.375929 19.4295963,9.41974806 19.4295963,9.41974806 C19.4295963,9.41974806 20.5464157,9.58585034 21.1419798,9.24927466 C21.7375439,8.91597731 21.9976251,8.69960722 21.9976251,8.69960722 L16.3108074,8.69960722 C15.1699469,8.69960722 12.006354,9.99345661 12.006354,13.0160811 C12.006354,16.0387056 15.2890597,16.6867231 16.4790952,16.6386408 C15.8114077,17.4538534 16.3840235,18.1980353 16.741362,18.5794149 C17.0987004,18.9640728 17.0265771,19.0831856 16.5993008,19.0831856 C16.1687462,19.0831856 10.888442,19.1411029 10.888442,22.9232082 C10.888442,26.7053136 17.9062635,26.9785081 20.2153039,24.9404768 C22.5221586,22.9013527 22.022759,20.0907271 20.2382522,18.8209189 L20.2382522,18.8209189 Z M16.859382,15.8944589 C14.0279937,15.8944589 12.7417938,9.27550133 16.0747673,9.27550133 C18.6679299,9.17824407 20.6174462,15.8944589 16.859382,15.8944589 L16.859382,15.8944589 Z M16.5238991,25.1535685 C14.1700549,25.1535685 12.9089888,23.9777392 12.9089888,22.2271085 C12.9089888,20.4753851 14.622465,19.6120903 17.8352329,19.6120903 C18.7061772,20.2830561 20.2622933,21.0982686 20.2622933,22.7308793 C20.2622933,24.3623971 18.8755578,25.1535685 16.5238991,25.1535685 L16.5238991,25.1535685 Z" id="Fill-207" fill="#FFFFFF"></path>
                    </g>
                </g>
            </g>
        </g>
    </g>
</svg>