<?xml version="1.0" encoding="UTF-8" standalone="no"?>
<svg width="42px" height="42px" viewBox="0 0 42 42" version="1.1" xmlns="http://www.w3.org/2000/svg" xmlns:xlink="http://www.w3.org/1999/xlink" xmlns:sketch="http://www.bohemiancoding.com/sketch/ns">
    <!-- Generator: Sketch 3.3.3 (12072) - http://www.bohemiancoding.com/sketch -->
    <title>google-adwords</title>
    <desc>Created with Sketch.</desc>
    <defs></defs>
    <g id="Page-1" stroke="none" stroke-width="1" fill="none" fill-rule="evenodd" sketch:type="MSPage">
        <g id="Landing" sketch:type="MSArtboardGroup" transform="translate(-499.000000, -1150.000000)" fill="#FFFFFF">
            <g id="Rectangle-45-+-Group-Copy-3" sketch:type="MSLayerGroup" transform="translate(490.000000, 1143.000000)">
                <g id="google-adwords" transform="translate(9.000000, 7.000000)" sketch:type="MSShapeGroup">
                    <path d="M32.1372318,41.8193706 L41.7644106,41.8211329 L41.7546755,41.7973427 L28.6078411,0.139804196 L28.6078411,40.231007 C29.5009669,41.2064056 30.7473377,41.8193706 32.1372318,41.8193706" id="Fill-1"></path>
                    <path d="M20.8815099,20.9497762 L26.3762781,38.3633287 C26.377947,38.3668531 26.377947,38.3700839 26.3793377,38.3753706 C26.6196556,39.079972 27.0065563,39.7067413 27.4902517,40.2327692 L27.4902517,0.143034965 L27.4757881,0.10220979 L20.8815099,20.9497762" id="Fill-2"></path>
                    <path d="M13.1777086,0.100447552 L13.1760397,0.116013986 L13.1710331,0.100447552 L0.00973509934,41.7991049 L0,41.8211329 L9.62717881,41.8211329 C11.015404,41.8211329 12.2634437,41.2081678 13.1565695,40.2292448 C13.6402649,39.7014545 14.0271656,39.0767413 14.2674834,38.3718462 C14.2691523,38.3668531 14.2691523,38.3633287 14.2708212,38.3615664 L26.366543,0.0954545455 L13.1760397,0.0954545455 L13.1760397,0.100447552 L13.1777086,0.100447552" id="Fill-3"></path>
                </g>
            </g>
        </g>
    </g>
</svg>