<?xml version="1.0" encoding="UTF-8" standalone="no"?>
<svg width="539px" height="158px" viewBox="0 0 539 158" version="1.1" xmlns="http://www.w3.org/2000/svg" xmlns:xlink="http://www.w3.org/1999/xlink" xmlns:sketch="http://www.bohemiancoding.com/sketch/ns">
    <!-- Generator: Sketch 3.3.3 (12072) - http://www.bohemiancoding.com/sketch -->
    <title>Logo</title>
    <desc>Created with Sketch.</desc>
    <defs>
        <path d="M458.373485,107.848706 L522.633242,107.848706 L522.633242,43.6833292 L458.373485,43.6833292 L458.373485,107.848706 Z M525.352217,124.185064 L455.6415,124.185064 C448.120302,124.185064 441.99285,118.070942 441.99285,110.559456 L441.99285,40.9656533 C441.99285,33.4558982 448.120302,27.3469713 455.6415,27.3469713 L525.352217,27.3469713 C532.886425,27.3469713 539,33.4558982 539,40.9656533 L539,110.559456 C539,118.070942 532.886425,124.185064 525.352217,124.185064 Z M228.299585,107.848706 L292.559341,107.848706 L292.559341,43.6833292 L228.299585,43.6833292 L228.299585,107.848706 Z M295.284388,124.185064 L225.570201,124.185064 C218.046402,124.185064 211.925888,118.070942 211.925888,110.559456 L211.925888,40.9656533 C211.925888,33.4558982 218.046402,27.3469713 225.570201,27.3469713 L295.284388,27.3469713 C302.812524,27.3469713 308.9261,33.4558982 308.9261,40.9656533 L308.9261,110.559456 C308.9261,118.070942 302.812524,124.185064 295.284388,124.185064 Z M113.263068,107.848706 L177.520223,107.848706 L177.520223,43.6833292 L113.263068,43.6833292 L113.263068,107.848706 Z M180.249606,124.185064 L110.540623,124.185064 C103.016823,124.185064 96.8902385,118.070942 96.8902385,110.559456 L96.8902385,40.9656533 C96.8902385,33.4558982 103.016823,27.3469713 110.540623,27.3469713 L180.249606,27.3469713 C187.773406,27.3469713 193.900858,33.4558982 193.900858,40.9656533 L193.900858,110.559456 C193.900858,118.070942 187.773406,124.185064 180.249606,124.185064 Z M41.108135,62.209585 C63.4418956,50.389989 78.6907084,26.9438653 78.6907084,0 L62.3248173,0 C62.3248173,27.0209195 42.3509714,49.4679358 16.3658911,53.4219422 L16.3658911,27.0347719 L0,27.0347719 L0,124.433888 L16.3658911,124.433888 L16.3658911,70.9989594 C42.3509714,74.9529658 62.3248173,97.4051768 62.3248173,124.433888 L78.6907084,124.433888 C78.6907084,97.4848283 63.4418956,74.0378389 41.108135,62.209585 Z M407.59447,107.848966 L343.331244,107.848966 L343.331244,93.5567087 L343.331244,43.683589 L407.59447,43.683589 L407.59447,107.848966 Z M410.322986,27.3472311 L340.602728,27.3472311 C333.078061,27.3472311 326.964486,33.4552922 326.964486,40.965913 L326.964486,124.185324 C326.964486,136.965933 322.473623,148.723193 315.007065,158 L334.617513,158 C339.973938,148.261733 343.099676,137.145149 343.293951,125.318626 L343.331244,125.318626 L343.331244,124.185324 L410.322986,124.185324 C417.847653,124.185324 423.975105,118.071202 423.975105,110.559715 L423.975105,40.965913 C423.975105,33.4552922 417.847653,27.3472311 410.322986,27.3472311 L410.322986,27.3472311 Z" id="path-1"></path>
    </defs>
    <g id="Page-1" stroke="none" stroke-width="1" fill="none" fill-rule="evenodd" sketch:type="MSPage">
        <g id="Landing" sketch:type="MSArtboardGroup" transform="translate(-450.000000, -250.000000)">
            <g id="Mask-+-Rectangle-1-+-Rectangle-2" sketch:type="MSLayerGroup" transform="translate(450.000000, 250.000000)">
                <mask id="mask-2" sketch:name="Logo" fill="white">
                    <use xlink:href="#path-1"></use>
                </mask>
                <use id="Logo" fill="#8ACC3C" sketch:type="MSShapeGroup" xlink:href="#path-1"></use>
            </g>
        </g>
    </g>
</svg>