<?xml version="1.0" encoding="UTF-8" standalone="no"?>
<svg width="46px" height="56px" viewBox="0 0 46 56" version="1.1" xmlns="http://www.w3.org/2000/svg" xmlns:xlink="http://www.w3.org/1999/xlink" xmlns:sketch="http://www.bohemiancoding.com/sketch/ns">
    <!-- Generator: Sketch 3.3.3 (12072) - http://www.bohemiancoding.com/sketch -->
    <title>mercadotecnia</title>
    <desc>Created with Sketch.</desc>
    <defs></defs>
    <g id="Page-1" stroke="none" stroke-width="1" fill="none" fill-rule="evenodd" sketch:type="MSPage">
        <g id="Landing" sketch:type="MSArtboardGroup" transform="translate(-1017.000000, -2091.000000)" fill="#8ACC3C">
            <g id="Group" sketch:type="MSLayerGroup" transform="translate(0.000000, 1668.000000)">
                <g id="Nosotros-Copy" sketch:type="MSShapeGroup">
                    <path d="M1048.04864,423 C1040.93621,423 1034.30632,427.218667 1030.11594,434.347467 L1027.72562,434.347467 C1020.98615,434.347467 1017,440.423467 1017,451 C1017,461.582756 1020.84543,467.8 1027.58491,467.8 L1030.07547,467.8 C1034.26772,474.930667 1040.93808,479 1048.04864,479 C1049.14013,479 1050,478.220356 1050,477.133333 L1050,424.866667 C1050,423.779022 1049.14013,423 1048.04864,423 L1048.04864,423 Z M1046,474 C1040.88659,473.259132 1036.02195,469.867711 1033.02134,464.16525 C1032.68659,463.529513 1032.03049,463.127539 1031.31829,463.127539 L1027.84573,463.127539 C1022.17012,463.127539 1021,455.221026 1021,450.5 C1021,445.783303 1022.17012,437.865039 1027.84512,437.865039 L1031.31768,437.865039 C1032.02988,437.865039 1032.68598,437.467395 1033.02073,436.829803 C1036.01829,431.126724 1040.88659,427.742724 1046,427 L1046,474 L1046,474 Z M1063,450.501762 C1063,456.261483 1059.63718,461.393538 1054.41582,463.901713 C1054.27736,463.970763 1054.13392,464 1053.98736,464 C1053.62314,464 1053.26952,463.796584 1053.09801,463.44325 C1052.86101,462.956171 1053.06869,462.367695 1053.56077,462.13131 C1058.08861,459.94972 1061.12899,455.501316 1061.12899,450.501762 C1061.12899,445.508427 1058.08861,441.046339 1053.56139,438.866615 C1053.06932,438.632095 1052.86164,438.044864 1053.09863,437.554053 C1053.3375,437.066974 1053.92624,436.863558 1054.41582,437.096211 C1059.63718,439.605009 1063,444.747017 1063,450.501762 L1063,450.501762 Z" id="mercadotecnia"></path>
                </g>
            </g>
        </g>
    </g>
</svg>