<?xml version="1.0" encoding="UTF-8" standalone="no"?>
<svg width="35px" height="35px" viewBox="0 0 35 35" version="1.1" xmlns="http://www.w3.org/2000/svg" xmlns:xlink="http://www.w3.org/1999/xlink" xmlns:sketch="http://www.bohemiancoding.com/sketch/ns">
    <!-- Generator: Sketch 3.3.3 (12072) - http://www.bohemiancoding.com/sketch -->
    <title>pinterest</title>
    <desc>Created with Sketch.</desc>
    <defs></defs>
    <g id="Page-1" stroke="none" stroke-width="1" fill="none" fill-rule="evenodd" sketch:type="MSPage">
        <g id="Landing" sketch:type="MSArtboardGroup" transform="translate(-780.000000, -5141.000000)">
            <g id="Contacto-+-Footer" sketch:type="MSLayerGroup" transform="translate(0.000000, 4304.000000)">
                <g id="Footer" transform="translate(0.000000, 672.000000)" sketch:type="MSShapeGroup">
                    <g id="pinterest" transform="translate(780.000000, 165.000000)">
                        <path d="M17.4844511,0 C27.1402393,0 34.9689023,7.828663 34.9689023,17.4844511 C34.9689023,27.1413321 27.1402393,34.9699951 17.4844511,34.9699951 C7.828663,34.9699951 0,27.1413321 0,17.4844511 C0,7.828663 7.828663,0 17.4844511,0" id="Fill-201" fill="#D2D6D9"></path>
                        <path d="M18.0133558,7.65600405 C11.8533651,7.65600405 8.74768946,11.9331379 8.74768946,15.4988732 C8.74768946,17.6582029 9.59131423,19.5793069 11.4020477,20.2939839 C11.6992834,20.4120039 11.9659213,20.298355 12.051158,19.9803565 C12.1112608,19.7607081 12.2533219,19.204484 12.3167031,18.9728151 C12.4030325,18.6580949 12.3702492,18.5477243 12.129838,18.273437 C11.60749,17.6767801 11.2741927,16.9052787 11.2741927,15.8114077 C11.2741927,12.6390726 13.7263869,9.79894209 17.6571101,9.79894209 C21.1387014,9.79894209 23.0521561,11.858829 23.0521561,14.6093517 C23.0521561,18.2297259 21.3976899,21.2851337 18.9422173,21.2851337 C17.5849867,21.2851337 16.5697958,20.1989122 16.8954437,18.8657228 C17.2855655,17.2757305 18.0395825,15.5600687 18.0395825,14.4115589 C18.0395825,13.3843474 17.470245,12.5265165 16.2911374,12.5265165 C14.9054946,12.5265165 13.7908608,13.9165303 13.7908608,15.7764388 C13.7908608,16.9610104 14.2050238,17.7631096 14.2050238,17.7631096 C14.2050238,17.7631096 12.7855049,23.584339 12.5363515,24.6039011 C12.0413229,26.634283 12.4620426,29.1225389 12.4981042,29.3749707 C12.518867,29.5235885 12.7166599,29.5585574 12.8062677,29.4470941 C12.9341227,29.2853629 14.5853106,27.3107127 15.1469986,25.338248 C15.3054514,24.7798384 16.0583756,21.8872545 16.0583756,21.8872545 C16.5086002,22.7199515 17.8264907,23.4521129 19.2263396,23.4521129 C23.3941956,23.4521129 26.2212128,19.7727287 26.2212128,14.8486701 C26.2212128,11.124482 22.963641,7.65600405 18.0133558,7.65600405" id="Fill-200" fill="#FFFFFF"></path>
                    </g>
                </g>
            </g>
        </g>
    </g>
</svg>