<?xml version="1.0" encoding="UTF-8" standalone="no"?>
<svg width="42px" height="42px" viewBox="0 0 42 42" version="1.1" xmlns="http://www.w3.org/2000/svg" xmlns:xlink="http://www.w3.org/1999/xlink" xmlns:sketch="http://www.bohemiancoding.com/sketch/ns">
    <!-- Generator: Sketch 3.3.3 (12072) - http://www.bohemiancoding.com/sketch -->
    <title>posicionamiento</title>
    <desc>Created with Sketch.</desc>
    <defs></defs>
    <g id="Page-1" stroke="none" stroke-width="1" fill="none" fill-rule="evenodd" sketch:type="MSPage">
        <g id="Landing" sketch:type="MSArtboardGroup" transform="translate(-899.000000, -1150.000000)" fill="#FFFFFF">
            <g id="Rectangle-45-+-Shape-Copy-2-+-Shape-Copy-2" sketch:type="MSLayerGroup" transform="translate(890.000000, 1143.000000)">
                <path d="M49.808697,42.0694221 L37.2817665,29.5930734 C38.5599353,27.3802897 39.2972001,24.8178514 39.2972001,22.0874916 C39.2972001,13.7691988 32.5034152,7 24.148965,7 C15.7967047,7 9,13.7691988 9,22.0874916 C9,30.4050574 15.7967047,37.1728023 24.148965,37.1728023 C26.803848,37.1728023 29.2995985,36.4902124 31.4683247,35.2900462 L44.041243,47.8121917 C44.8369049,48.6038216 45.880755,49 46.926065,49 C47.969915,48.9992731 49.0137651,48.6030947 49.808697,47.8121917 C51.397101,46.228205 51.397101,43.6505011 49.808697,42.0694221 L49.808697,42.0694221 Z M11.4293237,22.0874916 C11.4293237,15.1038476 17.1354607,9.42068643 24.148965,9.42068643 C31.1624694,9.42068643 36.8678763,15.1031206 36.8678763,22.0874916 C36.8678763,29.0718625 31.1617394,34.7535698 24.148235,34.7535698 C17.1347307,34.7535698 11.4293237,29.0718625 11.4293237,22.0874916 L11.4293237,22.0874916 Z M48.0888993,46.0995379 C47.44726,46.7377849 46.4012201,46.7392388 45.7603108,46.0995379 L33.5275562,33.9197778 C34.3918348,33.2393686 35.183117,32.4702736 35.8787737,31.6190353 L48.0888993,43.7798951 C48.7312686,44.420323 48.7312686,45.4620178 48.0888993,46.0995379 L48.0888993,46.0995379 Z" id="posicionamiento" sketch:type="MSShapeGroup"></path>
            </g>
        </g>
    </g>
</svg>