<?xml version="1.0" encoding="UTF-8" standalone="no"?>
<svg width="81px" height="56px" viewBox="0 0 81 56" version="1.1" xmlns="http://www.w3.org/2000/svg" xmlns:xlink="http://www.w3.org/1999/xlink" xmlns:sketch="http://www.bohemiancoding.com/sketch/ns">
    <!-- Generator: Sketch 3.3.3 (12072) - http://www.bohemiancoding.com/sketch -->
    <title>programacion</title>
    <desc>Created with Sketch.</desc>
    <defs></defs>
    <g id="Page-1" stroke="none" stroke-width="1" fill="none" fill-rule="evenodd" sketch:type="MSPage">
        <g id="Landing" sketch:type="MSArtboardGroup" transform="translate(-360.000000, -2091.000000)" fill="#8ACC3C">
            <g id="Group" sketch:type="MSLayerGroup" transform="translate(0.000000, 1668.000000)">
                <g id="Nosotros-Copy" sketch:type="MSShapeGroup">
                    <path d="M438.387097,463.372093 L434.467742,463.372093 L434.467742,429.511628 C434.467742,425.474419 432.116129,423 428.458065,423 L374.632258,423 C370.712903,423 366.532258,425.604651 366.532258,429.511628 L366.532258,463.372093 L362.612903,463.372093 C361.175806,463.372093 360,464.544186 360,465.976744 L360,471.186047 C360,474.962791 363.135484,479 368.36129,479 L433.683871,479 C438.256452,479 441,476.004651 441,471.186047 L441,465.976744 C441,464.544186 439.824194,463.372093 438.387097,463.372093 L438.387097,463.372093 Z M372,429.296296 C372,429.037037 373.295455,428 374.85,428 L428.222727,428 C428.740909,428 429,428 429,429.296296 L429,463 L372,463 L372,429.296296 L372,429.296296 Z M436,471.5 C436,474 434.816667,474 433.896296,474 L368.155556,474 C365.92037,474 365,472.5 365,471.5 L365,469 L393.925926,469 C393.925926,470.375 395.109259,471.5 396.555556,471.5 L404.444444,471.5 C405.890741,471.5 407.074074,470.375 407.074074,469 L436,469 L436,471.5 L436,471.5 Z" id="programacion"></path>
                </g>
            </g>
        </g>
    </g>
</svg>