<?xml version="1.0" encoding="UTF-8" standalone="no"?>
<svg width="500px" height="556px" viewBox="0 0 500 556" version="1.1" xmlns="http://www.w3.org/2000/svg" xmlns:xlink="http://www.w3.org/1999/xlink" xmlns:sketch="http://www.bohemiancoding.com/sketch/ns">
    <!-- Generator: Sketch 3.3.3 (12072) - http://www.bohemiancoding.com/sketch -->
    <title>servicios</title>
    <desc>Created with Sketch.</desc>
    <defs></defs>
    <g id="Page-1" stroke="none" stroke-width="1" fill="none" fill-rule="evenodd" sketch:type="MSPage">
        <rect id="Rectangle-7-Copy" fill="#19293D" sketch:type="MSShapeGroup" x="-469" y="-236" width="1440" height="1010"></rect>
        <path d="M306,286 L324,286 L324,268 L306,268 L306,286 Z M325.060724,292 L304.939526,292 C302.768619,292 301,290.232148 301,288.060259 L301,267.937739 C301,265.76635 302.768619,264 304.939526,264 L325.060724,264 C327.235387,264 329,265.76635 329,267.937739 L329,288.060259 C329,290.232148 327.235387,292 325.060724,292 Z M240,286 L258,286 L258,268 L240,268 L240,286 Z M259.062195,292 L238.938556,292 C236.766742,292 235,290.232148 235,288.060259 L235,267.937739 C235,265.76635 236.766742,264 238.938556,264 L259.062195,264 C261.23526,264 263,265.76635 263,267.937739 L263,288.060259 C263,290.232148 261.23526,292 259.062195,292 Z M207,286 L225,286 L225,268 L207,268 L207,286 Z M226.059864,292 L205.939886,292 C203.768305,292 202,290.232148 202,288.060259 L202,267.937739 C202,265.76635 203.768305,264 205.939886,264 L226.059864,264 C228.231445,264 230,265.76635 230,267.937739 L230,288.060259 C230,290.232148 228.231445,292 226.059864,292 Z M186.015232,273.49793 C192.543023,270.173387 197,263.578605 197,256 L192.216519,256 C192.216519,263.600278 186.378492,269.914037 178.783481,271.026196 L178.783481,263.604175 L174,263.604175 L174,291 L178.783481,291 L178.783481,275.970151 C186.378492,277.08231 192.216519,283.39753 192.216519,291 L197,291 C197,283.419934 192.543023,276.824909 186.015232,273.49793 Z M291,286 L273,286 L273,281.990663 L273,268 L291,268 L291,286 Z M292.116148,264 L272.281636,264 C270.140965,264 268.401732,265.729763 268.401732,267.856721 L268.401732,291.423907 C268.401732,295.043291 267.124139,298.37287 265,301 L270.578919,301 C272.102753,298.242187 272.991985,295.094044 273.047254,291.744851 L273.057863,291.744851 L273.057863,291.423907 L292.116148,291.423907 C294.256819,291.423907 296,289.692428 296,287.565225 L296,267.856721 C296,265.729763 294.256819,264 292.116148,264 L292.116148,264 Z" id="Mask-Copy-4" fill="#8ACC3C" sketch:type="MSShapeGroup"></path>
        <g id="Path-99-Copy-3-+-Path-99-Copy-8-Copy" sketch:type="MSLayerGroup" transform="translate(1.000000, 19.000000)" stroke="#FFFFFF" stroke-dasharray="4,4,4,4" opacity="0.497726213">
            <path d="M0.0530281067,0 L100.626408,0 L180,186.016321" id="Path-99-Copy-3" sketch:type="MSShapeGroup"></path>
            <path d="M498.046638,0 L399.373592,0 L320,186.016321" id="Path-99-Copy-8" sketch:type="MSShapeGroup"></path>
        </g>
        <g id="app-web-copy" sketch:type="MSLayerGroup" transform="translate(21.000000, -8.000000)">
            <rect id="Rectangle-45" fill="#19293D" sketch:type="MSShapeGroup" x="0" y="0" width="60" height="57"></rect>
            <g id="app-web" transform="translate(5.000000, 8.000000)" fill="#FFFFFF" sketch:type="MSShapeGroup">
                <g id="Group">
                    <path d="M46.5167054,36 L3.48273908,36 C1.56220486,36 0,34.4514708 0,32.5477491 L0,3.45225093 C0,1.54852921 1.56220486,0 3.48273908,0 L46.5172609,0 C48.4377951,0 50,1.54852921 50,3.45225093 L50,32.5482998 C49.9994445,34.4514708 48.4372396,36 46.5167054,36 L46.5167054,36 Z M3.48273908,0.986278739 C2.11108765,0.986278739 0.994988945,2.09260704 0.994988945,3.45225093 L0.994988945,32.5482998 C0.994988945,33.9079436 2.11108765,35.0142719 3.48273908,35.0142719 L46.5172609,35.0142719 C47.8889123,35.0142719 49.0050111,33.9079436 49.0050111,32.5482998 L49.0050111,3.45225093 C49.0050111,2.09260704 47.8889123,0.986278739 46.5172609,0.986278739 L3.48273908,0.986278739 L3.48273908,0.986278739 Z" id="Shape"></path>
                    <path d="M49.5016722,30 L0.497772247,30 C0.222775302,30 0,29.7762277 0,29.5 C0,29.2237723 0.222775302,29 0.497772247,29 L49.5022278,29 C49.7772247,29 50,29.2237723 50,29.5 C49.9994445,29.7762277 49.7766691,30 49.5016722,30 L49.5016722,30 Z" id="Shape"></path>
                    <path d="M34.4930769,40 L16.5069231,40 C16.2268707,40 16,39.7762277 16,39.5 C16,39.2237723 16.2268707,39 16.5069231,39 L34.4930769,39 C34.7731293,39 35,39.2237723 35,39.5 C34.9994342,39.7762277 34.7725635,40 34.4930769,40 L34.4930769,40 Z" id="Shape"></path>
                </g>
                <g id="Shape-+-Shape" transform="translate(17.000000, 6.000000)">
                    <path d="M16.9489345,11.461975 C16.8460989,11.1146425 16.6198607,10.8081725 16.2907869,10.6242906 L15.4475354,10.1339387 C15.1595958,9.97048808 14.9950589,9.64358683 15.0361931,9.29625426 C15.0567602,9.07150965 15.0773274,8.84676504 15.0773274,8.62202043 C15.0773274,8.39727582 15.0567602,8.17253121 15.0361931,7.96821793 C14.9950589,7.62088536 15.1595958,7.29398411 15.4475354,7.13053348 L16.2907869,6.64018161 C16.9489345,6.25198638 17.1957398,5.41430193 16.8049647,4.7400681 L16.0234145,3.41203178 C15.7766091,2.98297389 15.3035656,2.71736663 14.8099549,2.71736663 C14.5631496,2.71736663 14.3163442,2.77866061 14.1106731,2.90124858 L13.2674216,3.39160045 C12.979482,3.55505108 12.609274,3.53461975 12.3213345,3.33030647 C12.239066,3.26901249 12.1567976,3.2077185 12.0745291,3.14642452 C11.8482909,2.96254257 11.6220527,2.79909194 11.2929789,2.65607264 C11.1695762,2.59477866 10.9639051,2.45175936 10.9639051,1.90011351 L10.9639051,0.919409762 C10.9639051,0 9.81214689,0 9.25683489,0 L7.71430155,0 C7.17955666,0 6.43914065,0 6.43914065,0.919409762 L6.43914065,1.87968218 C6.43914065,2.1861521 6.21290243,2.51305335 5.86326154,2.65607264 C5.41078509,2.86038593 4.99944287,3.08513053 4.67036909,3.33030647 C4.40299664,3.53461975 4.01222153,3.55505108 3.72428197,3.39160045 L2.88103041,2.90124858 C2.6753593,2.77866061 2.42855397,2.71736663 2.18174863,2.71736663 C1.68813796,2.71736663 1.2150944,2.98297389 0.96828907,3.41203178 L0.186738844,4.7400681 C0.0016348433,5.06696935 -0.0394993791,5.43473326 0.0427690657,5.80249716 C0.145604622,6.17026107 0.371842845,6.45629966 0.700916624,6.64018161 L1.54416818,7.13053348 C1.83210774,7.29398411 1.99664463,7.62088536 1.95551041,7.96821793 C1.9349433,8.19296254 1.91437619,8.41770715 1.91437619,8.64245176 C1.91437619,8.86719637 1.9349433,9.09194098 1.95551041,9.31668558 C1.99664463,9.66401816 1.83210774,9.99091941 1.54416818,10.15437 L0.700916624,10.6242906 C0.0427690657,11.0124858 -0.204036269,11.8501703 0.186738844,12.5244041 L0.947721959,13.8524404 C1.19452729,14.2814983 1.66757085,14.5471056 2.16118152,14.5471056 C2.40798685,14.5471056 2.65479219,14.4858116 2.8604633,14.3632236 L3.70371486,13.8728717 C3.99165442,13.7094211 4.36186242,13.7298524 4.64980198,13.9341657 C4.95830865,14.1589103 5.36965087,14.3836549 5.88382865,14.6083995 C6.21290243,14.7514188 6.45970776,15.0783201 6.45970776,15.38479 L6.45970776,16.3450624 C6.45970776,17.1418842 6.97388554,18 7.73486866,18 L9.277402,18 C10.0589522,18 10.9844722,17.1010216 10.9844722,16.3450624 L10.9844722,15.38479 C10.9844722,14.8331442 11.1901433,14.6696935 11.3546802,14.6083995 C11.7660225,14.4245176 12.0745291,14.199773 12.4447371,13.9341657 C12.7121096,13.7298524 13.0617505,13.7094211 13.34969,13.8728717 L14.1723745,14.3632236 C14.3780456,14.4858116 14.6248509,14.5471056 14.8716562,14.5471056 L14.8716562,14.5471056 C15.3652669,14.5471056 15.8177434,14.2814983 16.0851158,13.8524404 L16.8460989,12.5244041 C16.9900687,12.1975028 17.05177,11.8093076 16.9489345,11.461975 L16.9489345,11.461975 Z M14.8918694,13.1251315 C14.7605804,13.3487125 14.5355136,13.4791347 14.2729357,13.4791347 C14.1416467,13.4791347 14.0291133,13.4418712 13.9165799,13.3859759 L13.1663572,12.9388141 C12.7162236,12.6779697 12.1723122,12.7152332 11.7221786,13.0319728 C11.4220895,13.2555537 11.1595116,13.4418712 10.840667,13.5722934 C10.4092889,13.7772426 10.1842221,14.1871409 10.1842221,14.7833567 L10.1842221,15.6590486 C10.1842221,16.0316835 9.60279958,16.6092675 9.19017711,16.6092675 L7.78350961,16.6092675 C7.44590941,16.6092675 7.18333148,16.1062105 7.18333148,15.6590486 L7.18333148,14.7833567 C7.18333148,14.2802996 6.84573128,13.7958743 6.33933098,13.5722934 C5.90795294,13.3859759 5.57035274,13.1996585 5.32653038,13.0133411 C5.08270801,12.8456554 4.82013008,12.7524967 4.52004101,12.7524967 C4.29497421,12.7524967 4.05115184,12.8083919 3.84484061,12.9388141 L3.07586238,13.3859759 C2.96332898,13.4418712 2.85079558,13.4791347 2.71950661,13.4791347 C2.45692868,13.4791347 2.23186187,13.3487125 2.10057291,13.1251315 L1.40661694,11.9140682 C1.21906127,11.5786969 1.33159467,11.1501668 1.66919487,10.9452176 L2.43817311,10.4980557 C2.88830671,10.2372113 3.15088464,9.71552253 3.09461794,9.19383372 C3.07586238,9.00751629 3.05710681,8.82119885 3.05710681,8.63488142 C3.05710681,8.44856399 3.07586238,8.26224656 3.09461794,8.07592912 C3.15088464,7.55424031 2.88830671,7.0325515 2.43817311,6.7717071 L1.66919487,6.32454526 C1.50039477,6.23138654 1.38786137,6.0823326 1.33159467,5.89601517 C1.27532797,5.70969773 1.31283911,5.5233803 1.40661694,5.35569461 L2.11932847,4.1446313 C2.25061744,3.92105038 2.47568424,3.79062818 2.73826218,3.79062818 C2.86955114,3.79062818 2.98208454,3.82789167 3.09461794,3.88378689 L3.86359618,4.33094873 C4.31372978,4.59179314 4.91390791,4.55452965 5.34528594,4.25642176 C5.62661944,4.05147258 5.94546408,3.86515515 6.33933098,3.69746946 C6.84573128,3.47388854 7.18333148,2.98946322 7.18333148,2.48640615 L7.18333148,1.62934596 C7.18333148,1.3871333 7.18333148,1.34986981 7.78350961,1.34986981 L9.19017711,1.34986981 C9.90288865,1.34986981 10.1842221,1.42439679 10.1842221,1.62934596 L10.1842221,2.50503789 C10.1842221,3.11988542 10.4092889,3.52978377 10.840667,3.71610121 C11.0844893,3.82789167 11.2345339,3.93968212 11.4408451,4.08873607 C11.5158674,4.1446313 11.5908896,4.20052653 11.6846675,4.2750535 C12.1160455,4.57316139 12.6974681,4.61042488 13.1476017,4.34958048 L13.9165799,3.90241864 C14.0291133,3.84652341 14.1416467,3.80925992 14.2729357,3.80925992 C14.5355136,3.80925992 14.7605804,3.93968212 14.8918694,4.16326304 L15.6045809,5.37432635 C15.7921366,5.70969773 15.6796032,6.13822783 15.342003,6.343177 L14.5730248,6.79033884 C14.1228911,7.05118325 13.8603132,7.57287206 13.9165799,8.09456087 C13.9353355,8.2808783 13.954091,8.46719573 13.954091,8.65351317 C13.954091,8.8398306 13.9353355,9.02614803 13.9165799,9.21246546 C13.8603132,9.73415427 14.1228911,10.2558431 14.5730248,10.5166875 L15.342003,10.9638493 C15.5108031,11.057008 15.6233365,11.206062 15.6796032,11.3923794 C15.7171143,11.5600651 15.6796032,11.7650143 15.5858254,11.9140682 L14.8918694,13.1251315 Z" id="Shape"></path>
                    <path d="M8.5,6 C7.12,6 6,7.11553785 6,8.49003984 C6,9.86454183 7.12,11 8.5,11 C9.88,11 11,9.88446215 11,8.50996016 C11,7.13545817 9.88,6 8.5,6 L8.5,6 Z M8.5,10.2031873 C7.55157895,10.2031873 6.8,9.4367792 6.8,8.50996016 C6.8,7.58314112 7.56947368,6.81673307 8.5,6.81673307 C9.44842105,6.81673307 10.2,7.58314112 10.2,8.50996016 C10.2,9.4367792 9.43052632,10.2031873 8.5,10.2031873 L8.5,10.2031873 Z" id="Shape"></path>
                </g>
            </g>
        </g>
        <circle id="Oval-6-Copy" stroke="#FFFFFF" opacity="0.2" sketch:type="MSShapeGroup" cx="251" cy="278" r="100"></circle>
        <path d="M0.848808289,277.940018 L151.50528,277.940018" id="Path-99-Copy-9" stroke="#FFFFFF" stroke-dasharray="4,4,4,4" opacity="0.497726213" sketch:type="MSShapeGroup" transform="translate(76.177044, 277.940018) scale(1, -1) translate(-76.177044, -277.940018) "></path>
        <g id="Rectangle-45-+-Group-Copy-4" sketch:type="MSLayerGroup" transform="translate(21.000000, 249.000000)">
            <rect id="Rectangle-45" fill="#19293D" sketch:type="MSShapeGroup" x="0" y="0" width="60" height="57"></rect>
            <g id="google-adwords" transform="translate(9.000000, 7.000000)" fill="#FFFFFF" sketch:type="MSShapeGroup">
                <path d="M32.1372318,41.8193706 L41.7644106,41.8211329 L41.7546755,41.7973427 L28.6078411,0.139804196 L28.6078411,40.231007 C29.5009669,41.2064056 30.7473377,41.8193706 32.1372318,41.8193706" id="Fill-1"></path>
                <path d="M20.8815099,20.9497762 L26.3762781,38.3633287 C26.377947,38.3668531 26.377947,38.3700839 26.3793377,38.3753706 C26.6196556,39.079972 27.0065563,39.7067413 27.4902517,40.2327692 L27.4902517,0.143034965 L27.4757881,0.10220979 L20.8815099,20.9497762" id="Fill-2"></path>
                <path d="M13.1777086,0.100447552 L13.1760397,0.116013986 L13.1710331,0.100447552 L0.00973509934,41.7991049 L0,41.8211329 L9.62717881,41.8211329 C11.015404,41.8211329 12.2634437,41.2081678 13.1565695,40.2292448 C13.6402649,39.7014545 14.0271656,39.0767413 14.2674834,38.3718462 C14.2691523,38.3668531 14.2691523,38.3633287 14.2708212,38.3615664 L26.366543,0.0954545455 L13.1760397,0.0954545455 L13.1760397,0.100447552 L13.1777086,0.100447552" id="Fill-3"></path>
            </g>
        </g>
        <path d="M351.513275,277.940018 L500.036011,277.940018" id="Path-99-Copy-10" stroke="#FFFFFF" stroke-dasharray="4,4,4,4" opacity="0.497726213" sketch:type="MSShapeGroup" transform="translate(425.774643, 277.940018) scale(-1, -1) translate(-425.774643, -277.940018) "></path>
        <g id="Rectangle-45-+-Shape-Copy-2" sketch:type="MSLayerGroup" transform="translate(421.000000, -8.000000)">
            <rect id="Rectangle-45" fill="#19293D" sketch:type="MSShapeGroup" x="0" y="0" width="60" height="57"></rect>
            <path d="M34.2808082,17.210023 L32.5118149,17.8840401 L33.7936972,18.7749674 L35.2116959,18.9477845 L34.2808082,17.210023 L34.2808082,17.210023 Z M35.4177942,16.7768117 L39.3375403,15.2833205 L39.3375403,19.4506177 L36.6763675,19.1262899 L35.4177942,16.7768117 L35.4177942,16.7768117 Z M37.3691532,20.4195677 L39.3375403,20.6594629 L39.3375403,22.6280206 L38.0863576,21.7584302 L37.3691532,20.4195677 L37.3691532,20.4195677 Z M35.9044814,20.2410623 L35.9028563,20.2408643 L35.9052763,20.2425462 L35.9044814,20.2410623 L35.9044814,20.2410623 Z M39.3375403,24.0941117 L39.3375403,24.0927483 L39.3363768,24.0919397 L39.3375403,24.0941117 L39.3375403,24.0941117 Z M39.3375403,26.649825 L39.3375403,31.3501749 L37.1552954,35.4239441 L33.3472408,38.0705988 L28.6470746,38.6434268 L24.307965,36.9901509 L21.1970139,33.5607121 L20.0514048,29 L21.1970139,24.4392879 L24.307965,21.0098491 L28.6470746,19.3565731 L33.3472408,19.9294012 L37.1552954,22.5760557 L39.3375403,26.649825 L39.3375403,26.649825 Z M33.7090497,16.1426761 L31.3174297,17.0539247 L29.2193091,15.5956998 L31.857897,12.6869831 L33.7090497,16.1426761 L33.7090497,16.1426761 Z M34.8460357,15.7094647 L39.3375403,13.9981236 L39.3375403,11.945207 L40.5463394,11.945207 L40.5463394,13.5375502 L42.0819595,12.9524523 L42.5151542,14.0725945 L40.5463394,14.8227471 L40.5463394,19.5979389 L45.3212673,20.1798784 L46.3177126,18.3197349 L47.385019,18.8830232 L46.6064151,20.3365045 L48.1853072,20.5289304 L48.0379915,21.7198217 L45.9985437,21.4712661 L43.7398723,25.6877067 L47.4519217,28.2676361 L49.3066614,26.9785646 L50,27.9614116 L48.50566,29 L50,30.0385883 L49.3066614,31.0214353 L47.4519217,29.7323638 L43.7398723,32.3122932 L45.9985437,36.5287339 L48.0379915,36.2801782 L48.1853072,37.4710695 L46.6064151,37.6634954 L47.385019,39.1169767 L46.3177126,39.6802649 L45.3212673,37.8201215 L40.5463394,38.402061 L40.5463394,43.1772529 L42.5151542,43.9274054 L42.0819595,45.0475476 L40.5463394,44.4624498 L40.5463394,46.0547929 L39.3375403,46.0547929 L39.3375403,44.0018763 L34.8460357,42.2905353 L32.7186513,46.2618919 L34.2246006,47.9220149 L33.3262879,48.7248609 L32.1147339,47.3892725 L31.2518962,49 L30.1845898,48.4367117 L31.2539797,46.4403973 L28.2216827,43.0976653 L24.2806413,45.8367476 L24.7744762,47.802723 L23.6015837,48.0929894 L23.220004,46.5739063 L21.8503066,47.5258663 L21.156968,46.5430192 L22.9067637,45.3268852 L21.7429514,40.6937051 L16.9678709,41.2756633 L16.4609681,43.2936622 L15.2880756,43.003396 L15.6827231,41.4322894 L14.0770241,41.6279823 L13.9297085,40.437091 L15.9959634,40.1852683 L17.15985,35.5517922 L12.6687759,33.840615 L11.2303086,35.4263474 L10.3319958,34.6235013 L11.4599769,33.3800417 L10,32.8237653 L10.4331948,31.7036231 L12.3263665,32.4249543 L15.4332497,29 L12.3263665,25.5750456 L10.4331948,26.2963768 L10,25.1762347 L11.4599769,24.6199582 L10.3319958,23.3764987 L11.2303086,22.5736525 L12.6687759,24.1593848 L17.15985,22.4482078 L15.9959634,17.8147316 L13.9297085,17.5629089 L14.0770241,16.3720176 L15.6827231,16.5677105 L15.2880756,14.996604 L16.4609681,14.7063377 L16.9678709,16.7243366 L21.7429514,17.3062948 L22.9067637,12.6731147 L21.156968,11.4569807 L21.8503066,10.4741336 L23.220004,11.4260936 L23.6015837,9.90701053 L24.7744762,10.1972768 L24.2806413,12.1632523 L28.2216827,14.9023346 L31.2539797,11.5596026 L30.1845898,9.56328826 L31.2518962,9 L32.1147339,10.6107274 L33.3262879,9.27513902 L34.2246006,10.0779851 L32.7186513,11.7381079 L34.8460357,15.7094647 L34.8460357,15.7094647 Z M42.742246,33.0056583 L40.5463394,34.531846 L40.5463394,37.1932159 L44.7133959,36.68536 L42.742246,33.0056583 L42.742246,33.0056583 Z M43.1681138,31.2449462 L46.3981832,29 L43.1681138,26.7550537 L41.9655365,29 L43.1681138,31.2449462 L43.1681138,31.2449462 Z M42.1704873,31.9383113 L40.5463394,33.0671183 L40.5463394,31.6493273 L41.2810117,30.2778566 L42.1704873,31.9383113 L42.1704873,31.9383113 Z M40.5463394,26.3506726 L40.5463394,24.9328816 L42.1704873,26.0616886 L41.2810117,27.7221433 L40.5463394,26.3506726 L40.5463394,26.3506726 Z M40.5463394,28.9063858 L40.5463394,29.0936141 L40.5964867,29 L40.5463394,28.9063858 L40.5463394,28.9063858 Z M31.1505845,18.4026925 L31.0508648,18.4406874 L31.2380815,18.4635043 L31.1505845,18.4026925 L31.1505845,18.4026925 Z M29.9561994,17.5725771 L28.4952493,18.1292243 L27.0777792,17.9564716 L28.4043904,16.4940469 L29.9561994,17.5725771 L29.9561994,17.5725771 Z M27.4067641,15.8006817 L25.6131075,17.7779662 L22.9517505,17.453616 L23.967401,13.4102734 L27.4067641,15.8006817 L27.4067641,15.8006817 Z M40.5463394,23.4681539 L40.5463394,20.8067841 L44.7133959,21.3146399 L42.742246,24.9943416 L40.5463394,23.4681539 L40.5463394,23.4681539 Z M17.2811112,17.9713577 L18.2968361,22.0149964 L20.7997144,21.0613564 L21.4483203,18.4792322 L17.2811112,17.9713577 L17.2811112,17.9713577 Z M22.6571194,18.6265533 L22.1773721,20.5364449 L23.6038386,19.9929365 L24.6256907,18.866471 L22.6571194,18.6265533 L22.6571194,18.6265533 Z M26.089598,19.0458191 L26.091459,19.04511 L26.0903625,19.0449764 L26.089598,19.0458191 L26.089598,19.0458191 Z M13.5351656,25.1144723 L16.2465495,28.1034376 L18.0742806,26.0885901 L17.4544811,23.6211452 L13.5351656,25.1144723 L13.5351656,25.1144723 Z M18.5914672,23.1879338 L19.0499233,25.0130647 L20.0970335,23.8587553 L20.4427173,22.4825754 L18.5914672,23.1879338 L18.5914672,23.1879338 Z M21.820375,21.957664 L21.8199162,21.9594903 L21.8222057,21.9569665 L21.820375,21.957664 L21.820375,21.957664 Z M19.4741311,26.3385529 L19.4285024,26.5202024 L19.4026636,26.417337 L19.4741311,26.3385529 L19.4741311,26.3385529 Z M18.4270209,27.4928624 L18.8056001,29 L18.4270209,30.5071375 L17.0598493,29 L18.4270209,27.4928624 L18.4270209,27.4928624 Z M16.2465495,29.8965624 L18.0742806,31.9114098 L17.4544811,34.3788547 L13.5351656,32.8855276 L16.2465495,29.8965624 L16.2465495,29.8965624 Z M17.2811112,40.0286422 L21.4483203,39.5207678 L20.7997144,36.9386435 L18.2968361,35.9850035 L17.2811112,40.0286422 L17.2811112,40.0286422 Z M18.5914672,34.8120662 L20.4427173,35.5174245 L20.0970335,34.1412446 L19.0499233,32.9869352 L18.5914672,34.8120662 L18.5914672,34.8120662 Z M19.4026636,31.582663 L19.4741311,31.661447 L19.4285024,31.4797975 L19.4026636,31.582663 L19.4026636,31.582663 Z M21.8199162,36.0405097 L21.8222057,36.0430335 L21.820375,36.042336 L21.8199162,36.0405097 L21.8199162,36.0405097 Z M22.1773721,37.4635549 L23.6038386,38.0070634 L24.6256907,39.1335289 L22.6571194,39.3734466 L22.1773721,37.4635549 L22.1773721,37.4635549 Z M22.9517505,40.5463839 L25.6131075,40.2220337 L27.4067641,42.1993182 L23.967401,44.5897265 L22.9517505,40.5463839 L22.9517505,40.5463839 Z M31.857897,45.3130169 L33.7090497,41.8573238 L31.3174297,40.9460753 L29.2193091,42.4043002 L31.857897,45.3130169 L31.857897,45.3130169 Z M28.4043904,41.5059531 L29.9561994,40.4274229 L28.4952493,39.8707755 L27.0777792,40.0435283 L28.4043904,41.5059531 L28.4043904,41.5059531 Z M26.091459,38.9548898 L26.089598,38.9541809 L26.0903625,38.9550235 L26.091459,38.9548898 L26.091459,38.9548898 Z M31.0508648,39.5593125 L31.2380815,39.5364956 L31.1505845,39.5973073 L31.0508648,39.5593125 L31.0508648,39.5593125 Z M32.5118149,40.1159597 L33.7936972,39.2250326 L35.2116959,39.0522154 L34.2808082,40.7899769 L32.5118149,40.1159597 L32.5118149,40.1159597 Z M35.4177942,41.2231882 L36.6763675,38.87371 L39.3375403,38.5493822 L39.3375403,42.7166794 L35.4177942,41.2231882 L35.4177942,41.2231882 Z M39.3375403,37.3405369 L39.3375403,35.3719793 L38.0863576,36.2415698 L37.3691532,37.5804322 L39.3375403,37.3405369 L39.3375403,37.3405369 Z M35.9044814,37.7589376 L35.9052763,37.7574538 L35.9028563,37.7591358 L35.9044814,37.7589376 L35.9044814,37.7589376 Z M39.3363768,33.9080603 L39.3375403,33.9058883 L39.3375403,33.9072516 L39.3363768,33.9080603 L39.3363768,33.9080603 Z" id="social-media" fill="#FFFFFF" sketch:type="MSShapeGroup"></path>
        </g>
        <g id="Rectangle-45-+-Shape-Copy-2-+-Shape-Copy-2-Copy" sketch:type="MSLayerGroup" transform="translate(421.000000, 249.000000)">
            <rect id="Rectangle-45" fill="#19293D" sketch:type="MSShapeGroup" x="0" y="0" width="60" height="57"></rect>
            <path d="M49.808697,42.0694221 L37.2817665,29.5930734 C38.5599353,27.3802897 39.2972001,24.8178514 39.2972001,22.0874916 C39.2972001,13.7691988 32.5034152,7 24.148965,7 C15.7967047,7 9,13.7691988 9,22.0874916 C9,30.4050574 15.7967047,37.1728023 24.148965,37.1728023 C26.803848,37.1728023 29.2995985,36.4902124 31.4683247,35.2900462 L44.041243,47.8121917 C44.8369049,48.6038216 45.880755,49 46.926065,49 C47.969915,48.9992731 49.0137651,48.6030947 49.808697,47.8121917 C51.397101,46.228205 51.397101,43.6505011 49.808697,42.0694221 L49.808697,42.0694221 Z M11.4293237,22.0874916 C11.4293237,15.1038476 17.1354607,9.42068643 24.148965,9.42068643 C31.1624694,9.42068643 36.8678763,15.1031206 36.8678763,22.0874916 C36.8678763,29.0718625 31.1617394,34.7535698 24.148235,34.7535698 C17.1347307,34.7535698 11.4293237,29.0718625 11.4293237,22.0874916 L11.4293237,22.0874916 Z M48.0888993,46.0995379 C47.44726,46.7377849 46.4012201,46.7392388 45.7603108,46.0995379 L33.5275562,33.9197778 C34.3918348,33.2393686 35.183117,32.4702736 35.8787737,31.6190353 L48.0888993,43.7798951 C48.7312686,44.420323 48.7312686,45.4620178 48.0888993,46.0995379 L48.0888993,46.0995379 Z" id="posicionamiento" fill="#FFFFFF" sketch:type="MSShapeGroup"></path>
        </g>
        <path d="M0.493800163,349.983679 L101.626408,349.983679 L181,536" id="Path-99-Copy-4" stroke="#FFFFFF" stroke-dasharray="4,4,4,4" opacity="0.497726213" sketch:type="MSShapeGroup" transform="translate(90.746900, 442.991839) scale(1, -1) translate(-90.746900, -442.991839) "></path>
        <path d="M499.381718,349.983679 L400.373592,349.983679 L321,536" id="Path-99-Copy-11" stroke="#FFFFFF" stroke-dasharray="4,4,4,4" opacity="0.497726213" sketch:type="MSShapeGroup" transform="translate(410.190859, 442.991839) scale(1, -1) translate(-410.190859, -442.991839) "></path>
        <g id="Rectangle-45-+-Shape-Copy-+-Shape-+-Shape-Copy" sketch:type="MSLayerGroup" transform="translate(421.000000, 507.000000)">
            <g id="Rectangle-45-+-Shape-Copy-+-Shape" fill="#19293D" sketch:type="MSShapeGroup">
                <g id="Rectangle-45-+-Shape-Copy" transform="translate(0.000000, 0.440018)">
                    <rect id="Rectangle-45" x="0" y="0" width="60" height="57"></rect>
                </g>
            </g>
            <path d="M21.3368889,33.6601747 L30.1945778,41.1283194 L30.1745333,41.1456918 L21.3368889,33.6601747 L21.3368889,33.6601747 Z M30.1848,39.3603058 L22.1856,32.6163419 L30.1676889,39.3756928 L30.1848,39.3603058 L30.1848,39.3603058 Z M52,49 L8,49 L8,21.7327842 L12.7040889,18.6022785 L12.7040889,11.1291703 L23.9338667,11.1291703 L30.1388444,7 L36.2646222,11.1291703 L47.2929778,11.1291703 L47.2929778,18.5625702 L52,21.735266 L52,49 Z M47.7188362,24.0326934 L49.8004527,22.2431016 L47.7188362,20.8400391 L47.7188362,24.0326934 L47.7188362,24.0326934 Z M26.9787871,10.9238481 L33.2412129,10.9238481 L30.1300326,8.8269112 L26.9787871,10.9238481 L26.9787871,10.9238481 Z M14.9378326,25.7285223 L22.6264248,32.2390612 L30.1581729,38.6170569 L30.1747799,38.602538 L45.0602118,25.7322691 L45.0602118,19.663853 L45.0602118,18.1304738 L45.0602118,13.241364 L37.8061702,13.241364 L35.5314688,13.241364 L24.6515595,13.241364 L22.3570219,13.241364 L14.9378326,13.241364 L14.9378326,18.1787139 L14.9378326,19.7060046 L14.9378326,25.7285223 L14.9378326,25.7285223 Z M10.1677135,22.2309865 L12.3222865,24.0475896 L12.3222865,20.797347 L10.1677135,22.2309865 L10.1677135,22.2309865 Z M50.2724563,23.7880195 L30.2081338,41.0368272 L30.1913492,41.0227076 L21.5021965,33.6970644 L9.72755302,23.7700048 L9.72755302,47.4169434 L50.2729359,47.4169434 L50.2729359,23.7880195 L50.2724563,23.7880195 Z" id="email-marketing" fill="#FFFFFF" sketch:type="MSShapeGroup"></path>
        </g>
        <g id="Rectangle-45-+-Group-Copy-5" sketch:type="MSLayerGroup" transform="translate(21.000000, 506.000000)">
            <rect id="Rectangle-45" fill="#19293D" sketch:type="MSShapeGroup" x="0" y="0" width="60" height="57"></rect>
            <path d="M28.4165498,32.7792982 C28.6959498,33.0570722 29.0622498,33.1959592 29.4279998,33.1959592 C29.7937498,33.1959592 30.1605998,33.0570722 30.4394498,32.7792982 C30.9982498,32.2232034 30.9982498,31.3237188 30.4394498,30.767624 L25.7545499,26.1110823 C25.7539999,26.1105355 25.7539999,26.1105355 25.7534499,26.1099887 L24.7425499,25.1049718 L23.7327499,26.1088951 C23.7316499,26.1099887 23.7305499,26.1110823 23.7294499,26.1121759 L19.0478499,30.767624 C18.4890499,31.3237188 18.4890499,32.2232034 19.0478499,32.7792982 C19.6066499,33.3348461 20.5130499,33.3348461 21.0707499,32.7792982 L23.3119999,30.5505447 L23.3119999,42.5746586 C23.3119999,43.360409 23.9527499,43.9968832 24.7425499,43.9968832 C25.5328999,43.9968832 26.1736499,43.360409 26.1736499,42.5746586 L26.1736499,30.5499979 L28.4165498,32.7792982 Z M37.7857998,40.3256736 L35.5450998,42.5538802 L35.5450998,30.5303132 C35.5450998,29.7445628 34.9043498,29.1075417 34.1139998,29.1075417 C33.3236498,29.1075417 32.6828998,29.7445628 32.6828998,30.5303132 L32.6828998,42.5549738 L30.4399998,40.3256736 C29.8811998,39.7695788 28.9742498,39.7695788 28.4165498,40.3256736 C27.8577498,40.8812215 27.8577498,41.781253 28.4165498,42.336801 L33.1014498,46.9933427 C33.1019998,46.9938895 33.1025498,46.9944363 33.1030998,46.9949831 L34.1139998,48 L35.1226998,46.9971703 C35.1248998,46.9949831 35.1265498,46.9933427 35.1281998,46.9911555 L39.8092498,42.336801 C40.3680498,41.781253 40.3680498,40.8812215 39.8092498,40.3256736 C39.2498998,39.7695788 38.3445998,39.7695788 37.7857998,40.3256736 Z M50.1195497,23.9955162 C50.9632497,20.3051686 50.2779497,16.6935601 48.1846497,13.9595642 C45.0133497,9.81810725 39.3109498,8.55992235 33.9814498,10.7006411 C32.0839498,8.97111533 29.6017998,8 26.9969999,8 C21.5118499,8 17.0089999,12.2606592 16.6619499,17.6285867 C11.75485,18.4356622 8,22.683745 8,27.7875685 C8,33.1904912 12.24985,37.6993972 17.6744999,38.0526294 C17.7129999,38.0548166 17.7503999,38.0559102 17.7888999,38.0559102 C18.6853999,38.0559102 19.4405499,37.3636625 19.4999499,36.4603502 C19.5620999,35.5204024 18.8459999,34.7078589 17.8994499,34.6460706 C14.27385,34.4104001 11.4342,31.3980835 11.4342,27.7875685 C11.4342,23.9922355 14.5395,20.9050073 18.2618999,20.9017265 L20.3276999,20.9066477 L20.1126499,19.0087078 C20.0856999,18.7752245 20.0741499,18.5384605 20.0741499,18.2967753 C20.0741499,14.5014422 23.1794499,11.414214 26.9969999,11.414214 C29.0330998,11.414214 30.9580998,12.3033095 32.2769998,13.854032 L33.1531498,14.883108 L34.3625998,14.2745205 C38.5079498,12.1923093 43.0674497,12.9135374 45.4527997,16.0275587 C47.0554997,18.1223463 47.4641497,21.0225691 46.5736997,23.9856739 L46.2695497,24.9994395 L47.0472497,25.7217612 C48.0262497,26.6299947 48.5663497,27.8575588 48.5663497,29.177532 C48.5663497,31.7863109 46.4301497,33.9089853 43.8049997,33.9089853 C42.9871497,33.9089853 42.1753497,33.6940932 41.4586997,33.2900086 C40.6386498,32.8214017 39.5870498,33.1090181 39.1184498,33.9303104 C38.6487498,34.7488688 38.9374998,35.791068 39.7619498,36.2569409 C40.9950497,36.9535631 42.3920497,37.3226525 43.8049997,37.3226525 C48.3243497,37.3226525 51.9999997,33.6689404 51.9999997,29.177532 C52.0005497,27.2861537 51.3256997,25.4478149 50.1195497,23.9955162 Z" id="alojamiento" fill="#FFFFFF" sketch:type="MSShapeGroup"></path>
        </g>
    </g>
</svg>