<?xml version="1.0" encoding="UTF-8" standalone="no"?>
<svg width="40px" height="40px" viewBox="0 0 40 40" version="1.1" xmlns="http://www.w3.org/2000/svg" xmlns:xlink="http://www.w3.org/1999/xlink" xmlns:sketch="http://www.bohemiancoding.com/sketch/ns">
    <!-- Generator: Sketch 3.3.3 (12072) - http://www.bohemiancoding.com/sketch -->
    <title>social-media</title>
    <desc>Created with Sketch.</desc>
    <defs></defs>
    <g id="Page-1" stroke="none" stroke-width="1" fill="none" fill-rule="evenodd" sketch:type="MSPage">
        <g id="Landing" sketch:type="MSArtboardGroup" transform="translate(-900.000000, -895.000000)" fill="#FFFFFF">
            <g id="Rectangle-45-+-Shape" sketch:type="MSLayerGroup" transform="translate(890.000000, 886.000000)">
                <path d="M34.2808082,17.210023 L32.5118149,17.8840401 L33.7936972,18.7749674 L35.2116959,18.9477845 L34.2808082,17.210023 L34.2808082,17.210023 Z M35.4177942,16.7768117 L39.3375403,15.2833205 L39.3375403,19.4506177 L36.6763675,19.1262899 L35.4177942,16.7768117 L35.4177942,16.7768117 Z M37.3691532,20.4195677 L39.3375403,20.6594629 L39.3375403,22.6280206 L38.0863576,21.7584302 L37.3691532,20.4195677 L37.3691532,20.4195677 Z M35.9044814,20.2410623 L35.9028563,20.2408643 L35.9052763,20.2425462 L35.9044814,20.2410623 L35.9044814,20.2410623 Z M39.3375403,24.0941117 L39.3375403,24.0927483 L39.3363768,24.0919397 L39.3375403,24.0941117 L39.3375403,24.0941117 Z M39.3375403,26.649825 L39.3375403,31.3501749 L37.1552954,35.4239441 L33.3472408,38.0705988 L28.6470746,38.6434268 L24.307965,36.9901509 L21.1970139,33.5607121 L20.0514048,29 L21.1970139,24.4392879 L24.307965,21.0098491 L28.6470746,19.3565731 L33.3472408,19.9294012 L37.1552954,22.5760557 L39.3375403,26.649825 L39.3375403,26.649825 Z M33.7090497,16.1426761 L31.3174297,17.0539247 L29.2193091,15.5956998 L31.857897,12.6869831 L33.7090497,16.1426761 L33.7090497,16.1426761 Z M34.8460357,15.7094647 L39.3375403,13.9981236 L39.3375403,11.945207 L40.5463394,11.945207 L40.5463394,13.5375502 L42.0819595,12.9524523 L42.5151542,14.0725945 L40.5463394,14.8227471 L40.5463394,19.5979389 L45.3212673,20.1798784 L46.3177126,18.3197349 L47.385019,18.8830232 L46.6064151,20.3365045 L48.1853072,20.5289304 L48.0379915,21.7198217 L45.9985437,21.4712661 L43.7398723,25.6877067 L47.4519217,28.2676361 L49.3066614,26.9785646 L50,27.9614116 L48.50566,29 L50,30.0385883 L49.3066614,31.0214353 L47.4519217,29.7323638 L43.7398723,32.3122932 L45.9985437,36.5287339 L48.0379915,36.2801782 L48.1853072,37.4710695 L46.6064151,37.6634954 L47.385019,39.1169767 L46.3177126,39.6802649 L45.3212673,37.8201215 L40.5463394,38.402061 L40.5463394,43.1772529 L42.5151542,43.9274054 L42.0819595,45.0475476 L40.5463394,44.4624498 L40.5463394,46.0547929 L39.3375403,46.0547929 L39.3375403,44.0018763 L34.8460357,42.2905353 L32.7186513,46.2618919 L34.2246006,47.9220149 L33.3262879,48.7248609 L32.1147339,47.3892725 L31.2518962,49 L30.1845898,48.4367117 L31.2539797,46.4403973 L28.2216827,43.0976653 L24.2806413,45.8367476 L24.7744762,47.802723 L23.6015837,48.0929894 L23.220004,46.5739063 L21.8503066,47.5258663 L21.156968,46.5430192 L22.9067637,45.3268852 L21.7429514,40.6937051 L16.9678709,41.2756633 L16.4609681,43.2936622 L15.2880756,43.003396 L15.6827231,41.4322894 L14.0770241,41.6279823 L13.9297085,40.437091 L15.9959634,40.1852683 L17.15985,35.5517922 L12.6687759,33.840615 L11.2303086,35.4263474 L10.3319958,34.6235013 L11.4599769,33.3800417 L10,32.8237653 L10.4331948,31.7036231 L12.3263665,32.4249543 L15.4332497,29 L12.3263665,25.5750456 L10.4331948,26.2963768 L10,25.1762347 L11.4599769,24.6199582 L10.3319958,23.3764987 L11.2303086,22.5736525 L12.6687759,24.1593848 L17.15985,22.4482078 L15.9959634,17.8147316 L13.9297085,17.5629089 L14.0770241,16.3720176 L15.6827231,16.5677105 L15.2880756,14.996604 L16.4609681,14.7063377 L16.9678709,16.7243366 L21.7429514,17.3062948 L22.9067637,12.6731147 L21.156968,11.4569807 L21.8503066,10.4741336 L23.220004,11.4260936 L23.6015837,9.90701053 L24.7744762,10.1972768 L24.2806413,12.1632523 L28.2216827,14.9023346 L31.2539797,11.5596026 L30.1845898,9.56328826 L31.2518962,9 L32.1147339,10.6107274 L33.3262879,9.27513902 L34.2246006,10.0779851 L32.7186513,11.7381079 L34.8460357,15.7094647 L34.8460357,15.7094647 Z M42.742246,33.0056583 L40.5463394,34.531846 L40.5463394,37.1932159 L44.7133959,36.68536 L42.742246,33.0056583 L42.742246,33.0056583 Z M43.1681138,31.2449462 L46.3981832,29 L43.1681138,26.7550537 L41.9655365,29 L43.1681138,31.2449462 L43.1681138,31.2449462 Z M42.1704873,31.9383113 L40.5463394,33.0671183 L40.5463394,31.6493273 L41.2810117,30.2778566 L42.1704873,31.9383113 L42.1704873,31.9383113 Z M40.5463394,26.3506726 L40.5463394,24.9328816 L42.1704873,26.0616886 L41.2810117,27.7221433 L40.5463394,26.3506726 L40.5463394,26.3506726 Z M40.5463394,28.9063858 L40.5463394,29.0936141 L40.5964867,29 L40.5463394,28.9063858 L40.5463394,28.9063858 Z M31.1505845,18.4026925 L31.0508648,18.4406874 L31.2380815,18.4635043 L31.1505845,18.4026925 L31.1505845,18.4026925 Z M29.9561994,17.5725771 L28.4952493,18.1292243 L27.0777792,17.9564716 L28.4043904,16.4940469 L29.9561994,17.5725771 L29.9561994,17.5725771 Z M27.4067641,15.8006817 L25.6131075,17.7779662 L22.9517505,17.453616 L23.967401,13.4102734 L27.4067641,15.8006817 L27.4067641,15.8006817 Z M40.5463394,23.4681539 L40.5463394,20.8067841 L44.7133959,21.3146399 L42.742246,24.9943416 L40.5463394,23.4681539 L40.5463394,23.4681539 Z M17.2811112,17.9713577 L18.2968361,22.0149964 L20.7997144,21.0613564 L21.4483203,18.4792322 L17.2811112,17.9713577 L17.2811112,17.9713577 Z M22.6571194,18.6265533 L22.1773721,20.5364449 L23.6038386,19.9929365 L24.6256907,18.866471 L22.6571194,18.6265533 L22.6571194,18.6265533 Z M26.089598,19.0458191 L26.091459,19.04511 L26.0903625,19.0449764 L26.089598,19.0458191 L26.089598,19.0458191 Z M13.5351656,25.1144723 L16.2465495,28.1034376 L18.0742806,26.0885901 L17.4544811,23.6211452 L13.5351656,25.1144723 L13.5351656,25.1144723 Z M18.5914672,23.1879338 L19.0499233,25.0130647 L20.0970335,23.8587553 L20.4427173,22.4825754 L18.5914672,23.1879338 L18.5914672,23.1879338 Z M21.820375,21.957664 L21.8199162,21.9594903 L21.8222057,21.9569665 L21.820375,21.957664 L21.820375,21.957664 Z M19.4741311,26.3385529 L19.4285024,26.5202024 L19.4026636,26.417337 L19.4741311,26.3385529 L19.4741311,26.3385529 Z M18.4270209,27.4928624 L18.8056001,29 L18.4270209,30.5071375 L17.0598493,29 L18.4270209,27.4928624 L18.4270209,27.4928624 Z M16.2465495,29.8965624 L18.0742806,31.9114098 L17.4544811,34.3788547 L13.5351656,32.8855276 L16.2465495,29.8965624 L16.2465495,29.8965624 Z M17.2811112,40.0286422 L21.4483203,39.5207678 L20.7997144,36.9386435 L18.2968361,35.9850035 L17.2811112,40.0286422 L17.2811112,40.0286422 Z M18.5914672,34.8120662 L20.4427173,35.5174245 L20.0970335,34.1412446 L19.0499233,32.9869352 L18.5914672,34.8120662 L18.5914672,34.8120662 Z M19.4026636,31.582663 L19.4741311,31.661447 L19.4285024,31.4797975 L19.4026636,31.582663 L19.4026636,31.582663 Z M21.8199162,36.0405097 L21.8222057,36.0430335 L21.820375,36.042336 L21.8199162,36.0405097 L21.8199162,36.0405097 Z M22.1773721,37.4635549 L23.6038386,38.0070634 L24.6256907,39.1335289 L22.6571194,39.3734466 L22.1773721,37.4635549 L22.1773721,37.4635549 Z M22.9517505,40.5463839 L25.6131075,40.2220337 L27.4067641,42.1993182 L23.967401,44.5897265 L22.9517505,40.5463839 L22.9517505,40.5463839 Z M31.857897,45.3130169 L33.7090497,41.8573238 L31.3174297,40.9460753 L29.2193091,42.4043002 L31.857897,45.3130169 L31.857897,45.3130169 Z M28.4043904,41.5059531 L29.9561994,40.4274229 L28.4952493,39.8707755 L27.0777792,40.0435283 L28.4043904,41.5059531 L28.4043904,41.5059531 Z M26.091459,38.9548898 L26.089598,38.9541809 L26.0903625,38.9550235 L26.091459,38.9548898 L26.091459,38.9548898 Z M31.0508648,39.5593125 L31.2380815,39.5364956 L31.1505845,39.5973073 L31.0508648,39.5593125 L31.0508648,39.5593125 Z M32.5118149,40.1159597 L33.7936972,39.2250326 L35.2116959,39.0522154 L34.2808082,40.7899769 L32.5118149,40.1159597 L32.5118149,40.1159597 Z M35.4177942,41.2231882 L36.6763675,38.87371 L39.3375403,38.5493822 L39.3375403,42.7166794 L35.4177942,41.2231882 L35.4177942,41.2231882 Z M39.3375403,37.3405369 L39.3375403,35.3719793 L38.0863576,36.2415698 L37.3691532,37.5804322 L39.3375403,37.3405369 L39.3375403,37.3405369 Z M35.9044814,37.7589376 L35.9052763,37.7574538 L35.9028563,37.7591358 L35.9044814,37.7589376 L35.9044814,37.7589376 Z M39.3363768,33.9080603 L39.3375403,33.9058883 L39.3375403,33.9072516 L39.3363768,33.9080603 L39.3363768,33.9080603 Z" id="social-media" sketch:type="MSShapeGroup"></path>
            </g>
        </g>
    </g>
</svg>