<?xml version="1.0" encoding="UTF-8" standalone="no"?>
<svg width="35px" height="35px" viewBox="0 0 35 35" version="1.1" xmlns="http://www.w3.org/2000/svg" xmlns:xlink="http://www.w3.org/1999/xlink" xmlns:sketch="http://www.bohemiancoding.com/sketch/ns">
    <!-- Generator: Sketch 3.3.3 (12072) - http://www.bohemiancoding.com/sketch -->
    <title>twitter</title>
    <desc>Created with Sketch.</desc>
    <defs></defs>
    <g id="Page-1" stroke="none" stroke-width="1" fill="none" fill-rule="evenodd" sketch:type="MSPage">
        <g id="Landing" sketch:type="MSArtboardGroup" transform="translate(-623.000000, -5141.000000)">
            <g id="Contacto-+-Footer" sketch:type="MSLayerGroup" transform="translate(0.000000, 4304.000000)">
                <g id="Footer" transform="translate(0.000000, 672.000000)" sketch:type="MSShapeGroup">
                    <g id="twitter" transform="translate(623.000000, 165.000000)">
                        <path d="M17.4844511,0 C27.1413321,0 34.9689023,7.828663 34.9689023,17.4844511 C34.9689023,27.1413321 27.1413321,34.9699951 17.4844511,34.9699951 C7.828663,34.9699951 0,27.1413321 0,17.4844511 C0,7.828663 7.828663,0 17.4844511,0" id="Fill-203" fill="#D2D6D9"></path>
                        <path d="M28.4144187,11.780149 C27.6516595,12.1090752 26.8298903,12.3309092 25.9676883,12.4314448 C26.8473747,11.9200246 27.5238044,11.1091831 27.8418029,10.1431672 C27.0178481,10.617433 26.1064711,10.9616581 25.1349913,11.1474304 C24.3591188,10.3431456 23.2510417,9.84156044 22.0260373,9.84156044 C19.6732859,9.84156044 17.7652951,11.6927267 17.7652951,13.9766331 C17.7652951,14.3000955 17.8024496,14.6159084 17.874573,14.9186079 C14.3339716,14.745949 11.1944198,13.100225 9.09300737,10.597763 C8.7258339,11.208626 8.51602049,11.9189318 8.51602049,12.6762271 C8.51602049,14.1110449 9.26785189,15.3775748 10.4108979,16.1184784 C9.71261261,16.0977156 9.05585292,15.9119433 8.48105158,15.6015943 L8.48105158,15.6540477 C8.48105158,17.6571101 9.94974548,19.327968 11.8992618,19.7082548 C11.5419233,19.8033265 11.1649148,19.8535943 10.7758858,19.8535943 C10.5015985,19.8535943 10.2349606,19.8284604 9.97487938,19.7792854 C10.5168974,21.4228238 12.090498,22.6172303 13.9547776,22.6511065 C12.4959187,23.7602763 10.6600513,24.4214071 8.66354554,24.4214071 C8.31932041,24.4214071 7.98055917,24.4017371 7.64726182,24.3634899 C9.53339699,25.5371337 11.7724995,26.2223056 14.1787971,26.2223056 C22.0162023,26.2223056 26.3009856,19.9202537 26.3009856,14.4563628 C26.3009856,14.2771471 26.2977073,14.0979315 26.2889651,13.9209014 C27.1216621,13.3384507 27.8439885,12.6095676 28.4144187,11.780149" id="Fill-202" fill="#FFFFFF"></path>
                    </g>
                </g>
            </g>
        </g>
    </g>
</svg>